<?xml version="1.0" encoding="utf-8"?>
<!-- Generator: Adobe Illustrator 24.0.0, SVG Export Plug-In . SVG Version: 6.00 Build 0)  -->
<svg version="1.1" id="Layer_1" xmlns="http://www.w3.org/2000/svg" xmlns:xlink="http://www.w3.org/1999/xlink" x="0px" y="0px"
	 viewBox="0 0 1200.9 595.3" style="enable-background:new 0 0 1200.9 595.3;" xml:space="preserve">
<style type="text/css">
	.st0{clip-path:url(#SVGID_2_);}
	.st1{fill:#ADDC7C;}
	.st2{fill:#D1F0C4;}
	.st3{fill:url(#XMLID_43_);}
	.st4{fill:#F2E9CC;}
	.st5{fill:#F2E5B1;}
	.st6{fill:url(#XMLID_46_);}
	.st7{fill:url(#XMLID_48_);}
	.st8{fill:#529130;}
	.st9{fill:#7DA84A;}
	.st10{fill:url(#XMLID_49_);}
	.st11{fill:#196815;}
	.st12{fill:#09806D;}
	.st13{fill:#F99F25;}
	.st14{fill:#AC4A63;}
	.st15{fill:#DBA368;}
	.st16{fill:#00AE7D;}
	.st17{fill:#029B63;}
	.st18{fill:#C1550A;}
	.st19{fill:#CB6771;}
	.st20{fill:#097464;}
	.st21{fill:#C66D31;}
	.st22{fill:#F58000;}
	.st23{fill:#FFB005;}
	.st24{fill:#FFD134;}
	.st25{fill:#F6CC44;}
	.st26{fill:#FFB408;}
	.st27{fill:#407606;}
	.st28{fill:#72BC5B;}
	.st29{fill:#539300;}
	.st30{fill:#D27434;}
	.st31{fill:#FFEE3E;}
	.st32{fill:#8FAF1D;}
	.st33{fill:#FDCD01;}
	.st34{fill:url(#XMLID_50_);}
	.st35{fill:#B47762;}
	.st36{fill:#83A338;}
	.st37{fill:#90593B;}
	.st38{fill:#C26464;}
	.st39{fill:url(#SVGID_3_);}
	.st40{clip-path:url(#SVGID_2_);fill:#C26464;}
	.st41{fill:url(#SVGID_4_);stroke:url(#SVGID_5_);stroke-miterlimit:10;}
</style>
<g id="XMLID_248_">
	<g>
		<defs>
			<rect id="SVGID_1_" x="480.6" width="720.3" height="595.3"/>
		</defs>
		<clipPath id="SVGID_2_">
			<use xlink:href="#SVGID_1_"  style="overflow:visible;"/>
		</clipPath>
		<g id="XMLID_6_" class="st0">
			<polygon id="XMLID_3_" class="st1" points="480.6,-1.7 1200.9,-1.7 1200.9,596.9 480.6,595.3 			"/>
			<g id="XMLID_1_">
				<g id="XMLID_953_">
					<path id="XMLID_965_" class="st2" d="M1049.1,70.8c-2.4-1.5-5.6-2.5-7.9-0.8c-0.2-9.2-7.5-17.3-15.4-16.9
						c-7.9,0.4-14.9,9.3-14.5,18.5c-2.7-3.8-7.1-5.7-11.2-4.9c-4.1,0.8-7.7,7.4-9.2,12l62-0.2C1053,75.2,1051.5,72.2,1049.1,70.8z"
						/>
					<path id="XMLID_964_" class="st2" d="M1151.5,142.1c-2.4-1.5-5.6-2.5-7.9-0.8c-0.2-9.2-7.5-17.3-15.4-16.9
						c-7.9,0.4-14.9,9.3-14.5,18.5c-2.7-3.8-7.1-5.7-11.2-4.9s-7.7,7.4-9.2,12l62-0.2C1155.4,146.6,1153.8,143.5,1151.5,142.1z"/>
					<path id="XMLID_45_" class="st2" d="M853.5,90.6l33.6-0.1c-0.1-1.7-0.9-3.3-2.2-4.1c-1.3-0.8-3-1.4-4.3-0.5"/>
					<path id="XMLID_42_" class="st2" d="M864.6,86.7"/>
					<path id="XMLID_962_" class="st2" d="M1165.8,86.4c-1.3-0.8-3-1.4-4.3-0.5c-0.1-5-4.1-9.4-8.3-9.2c-4.3,0.2-8,5-7.8,10
						c-1.5-2-3.8-3.1-6.1-2.6c-2.2,0.5-4.2,4-5,6.5l33.6-0.1C1167.9,88.8,1167,87.2,1165.8,86.4z"/>
					<path id="XMLID_961_" class="st2" d="M972.3,217c-1.3-0.8-3-1.4-4.3-0.5c-0.1-5-4.1-9.4-8.3-9.2c-4.3,0.2-8,5-7.8,10
						c-1.5-2-3.8-3.1-6.1-2.6c-2.2,0.4-4.2,4-5,6.5l33.6-0.1C974.4,219.4,973.5,217.7,972.3,217z"/>
					<path id="XMLID_960_" class="st2" d="M701.7,106.7c-1.3-0.8-3-1.4-4.3-0.5c-0.1-5-4.1-9.4-8.3-9.2c-4.3,0.2-8,5-7.8,10
						c-1.5-2-3.8-3.1-6.1-2.6c-2.2,0.4-4.2,4-5,6.5l33.6-0.1C703.8,109.1,702.9,107.5,701.7,106.7z"/>
					<path id="XMLID_959_" class="st2" d="M572.9,79.4c-1.3-0.8-3-1.4-4.3-0.5c-0.1-5-4.1-9.4-8.3-9.2c-4.3,0.2-8,5-7.8,10
						c-1.5-2-3.8-3.1-6.1-2.6c-2.2,0.4-4.2,4-5,6.5l33.6-0.1C575.1,81.9,574.2,80.2,572.9,79.4z"/>
					<path id="XMLID_958_" class="st2" d="M807.2,140.7c-1.3-0.8-3-1.4-4.3-0.5c-0.1-5-4.1-9.4-8.3-9.2c-4.3,0.2-8,5-7.8,10
						c-1.5-2-3.8-3.1-6.1-2.6c-2.2,0.4-4.2,4-5,6.5l33.6-0.1C809.4,143.1,808.5,141.5,807.2,140.7z"/>
					<path id="XMLID_957_" class="st2" d="M949.7,56.8c-3.9-1.1-8.2,2.8-8.4,7.5c-2.2-4-8.2-3.8-10.4,0.3c1.4-6.8-1-14.5-5.9-18.7
						c-4.9-4.1-11.9-4.5-17-0.8s-8.1,11.1-7.2,18c-2.5-1.8-5.7-2-8.4-0.4c-2.6,1.6-4.4,4.8-4.6,8.2h66.4
						C956,66.8,953.6,57.9,949.7,56.8z"/>
					<path id="XMLID_956_" class="st2" d="M797.1,84.7c-3.9-1.1-8.2,2.8-8.4,7.5c-2.2-4-8.2-3.8-10.4,0.3c1.4-6.8-1-14.5-5.9-18.7
						c-4.9-4.1-11.9-4.5-17-0.8c-5.1,3.7-8.1,11.1-7.2,18c-2.5-1.8-5.7-2-8.4-0.4c-2.6,1.6-4.4,4.8-4.6,8.2h66.4
						C803.4,94.6,801,85.8,797.1,84.7z"/>
					<path id="XMLID_955_" class="st2" d="M616.4,69.8c-2-0.5-4.2,1.4-4.2,3.8c-1.1-2-4.2-1.9-5.2,0.2c0.7-3.4-0.5-7.3-3-9.4
						c-2.5-2.1-6-2.2-8.6-0.4c-2.6,1.8-4.1,5.6-3.6,9.1c-1.3-0.9-2.9-1-4.2-0.2s-2.2,2.4-2.3,4.1h33.5
						C619.5,74.8,618.3,70.3,616.4,69.8z"/>
				</g>
			</g>
			<g id="XMLID_30_">
				<g id="XMLID_25_">
					<g id="XMLID_24_">
						
							<linearGradient id="XMLID_43_" gradientUnits="userSpaceOnUse" x1="737.5953" y1="450" x2="737.5953" y2="342.1" gradientTransform="matrix(1 0 0 -1 0 598)">
							<stop  offset="0" style="stop-color:#7FCC7E"/>
							<stop  offset="1" style="stop-color:#7FCC7E;stop-opacity:0"/>
						</linearGradient>
						<polygon id="XMLID_17_" class="st3" points="623.5,255.9 728.6,148 851.7,255.9 						"/>
						<polygon id="XMLID_20_" class="st4" points="713.8,163.2 725.1,171.9 727.3,163.2 732.6,180.7 728.6,148 						"/>
						<polygon id="XMLID_14_" class="st5" points="728.6,148 732.6,180.7 737.6,171.9 769.2,183.6 						"/>
					</g>
					<g id="XMLID_22_">
						
							<linearGradient id="XMLID_46_" gradientUnits="userSpaceOnUse" x1="627.5867" y1="510.2" x2="627.5867" y2="342.1" gradientTransform="matrix(1 0 0 -1 0 598)">
							<stop  offset="0" style="stop-color:#7FCC7E"/>
							<stop  offset="1" style="stop-color:#7FCC7E;stop-opacity:0"/>
						</linearGradient>
						<polygon id="XMLID_11_" class="st6" points="487.9,255.9 575.5,87.8 767.3,255.9 						"/>
						<polygon id="XMLID_13_" class="st4" points="557.9,121.7 564.2,116.8 576.2,160.2 575.5,87.8 						"/>
						<polygon id="XMLID_9_" class="st5" points="575.5,87.8 576.2,160.2 582.1,141.5 602.2,156.7 607.1,147.7 642.7,167.6 
							648.1,162.1 671.4,171.9 						"/>
					</g>
				</g>
				<g id="XMLID_27_">
					<g id="XMLID_28_">
						
							<linearGradient id="XMLID_48_" gradientUnits="userSpaceOnUse" x1="1044.2976" y1="480.1" x2="1044.2976" y2="312" gradientTransform="matrix(1 0 0 -1 0 598)">
							<stop  offset="0" style="stop-color:#7FCC7E"/>
							<stop  offset="1" style="stop-color:#7FCC7E;stop-opacity:0"/>
						</linearGradient>
						<polygon id="XMLID_47_" class="st7" points="866.5,286 1030.3,117.9 1222.1,286 						"/>
						<polygon id="XMLID_32_" class="st4" points="1006.8,142 1012.6,151.7 1019,146.8 1031,190.3 1030.3,117.9 						"/>
						<polygon id="XMLID_29_" class="st5" points="1030.3,117.9 1031,190.3 1036.9,171.6 1057,186.8 1061.9,177.8 1097.5,197.7 
							1102.9,192.2 1126.2,201.9 						"/>
					</g>
				</g>
			</g>
			<g id="XMLID_61_">
				<g id="XMLID_237_">
					<path id="XMLID_297_" class="st8" d="M736,387.1c0-11.8-8.5-21.2-18.7-20.4c-8.7,0.6-15.8,9-16.3,19.2
						c-0.4,8.5,3.6,16,9.6,19.5c3.2,1.8,5.1,5.5,5.1,9.6v33.8h5.5v-31.3c0-5.2,2.4-10.1,6.2-12.8C732.5,401.2,736,394.6,736,387.1z"
						/>
					<g id="XMLID_208_">
						<path id="XMLID_213_" class="st8" d="M628.2,374.7h-19.3c-3.8,0-6.8,3.5-6.8,7.9l0,0c0,4.4,3,7.9,6.8,7.9l0,0
							c5,0,9,4.7,9,10.5v47.8h1.3V401c0-5.8,4-10.5,9-10.5l0,0c3.8,0,6.8-3.5,6.8-7.9l0,0C634.9,378.2,631.9,374.7,628.2,374.7z"/>
						<path id="XMLID_210_" class="st9" d="M625.4,343.2h-27.5c-5.3,0-9.7,5-9.7,11.3l0,0c0,6.2,4.3,11.3,9.7,11.3l0,0
							c7.1,0,12.8,6.7,12.8,15v68h1.9v-68c0-8.3,5.7-15,12.8-15l0,0c5.3,0,9.7-5,9.7-11.3l0,0C634.9,348.3,630.7,343.2,625.4,343.2z
							"/>
						<path id="XMLID_239_" class="st9" d="M562.2,322.9h-32.9c-6.3,0-11.5,6-11.5,13.4l0,0c0,7.4,5.1,13.4,11.5,13.4l0,0
							c8.5,0,15.3,8,15.3,17.9v81.2h2.2v-81.2c0-9.9,6.8-17.9,15.3-17.9l0,0c6.3,0,11.5-6,11.5-13.4l0,0
							C573.7,328.9,568.6,322.9,562.2,322.9z"/>
						
							<linearGradient id="XMLID_49_" gradientUnits="userSpaceOnUse" x1="653.8404" y1="234" x2="653.8404" y2="149.1774" gradientTransform="matrix(1 0 0 -1 0 598)">
							<stop  offset="0" style="stop-color:#2B5E71"/>
							<stop  offset="0.2517" style="stop-color:#2D6170"/>
							<stop  offset="0.4229" style="stop-color:#356A6D"/>
							<stop  offset="0.5703" style="stop-color:#427968"/>
							<stop  offset="0.7041" style="stop-color:#558F60"/>
							<stop  offset="0.8288" style="stop-color:#6DAA56"/>
							<stop  offset="0.9451" style="stop-color:#8ACC4B"/>
							<stop  offset="1" style="stop-color:#9ADF44"/>
						</linearGradient>
						<path id="XMLID_216_" class="st10" d="M664.9,364h-22.2c-4.3,0-7.8,4.1-7.8,9.1l0,0c0,5,3.5,9.1,7.8,9.1l0,0
							c5.7,0,10.4,5.4,10.4,12.1V449h1.5v-54.7c0-6.7,4.6-12.1,10.4-12.1l0,0c4.3,0,7.8-4.1,7.8-9.1l0,0
							C672.6,368,669.2,364,664.9,364z"/>
						<path id="XMLID_211_" class="st8" d="M574.1,384.2h-16.9c-3.3,0-5.9,3.1-5.9,6.9l0,0c0,3.8,2.7,6.9,5.9,6.9l0,0
							c4.4,0,7.9,4.1,7.9,9.2v41.7h1.1v-41.7c0-5.1,3.5-9.2,7.9-9.2l0,0c3.3,0,5.9-3.1,5.9-6.9l0,0
							C580,387.3,577.4,384.2,574.1,384.2z"/>
						<path id="XMLID_236_" class="st11" d="M544.2,369.6h-20.7c-4,0-7.3,3.8-7.3,8.5l0,0c0,4.7,3.3,8.5,7.3,8.5l0,0
							c5.3,0,9.7,5,9.7,11.3v51h1.4v-51c0-6.2,4.3-11.3,9.7-11.3l0,0c4,0,7.3-3.8,7.3-8.5l0,0C551.3,373.4,548.1,369.6,544.2,369.6z
							"/>
						<path id="XMLID_214_" class="st9" d="M709.4,370.4c0-15-10.8-27-23.8-26c-11.1,0.8-20.1,11.4-20.8,24.4
							c-0.5,10.8,4.5,20.3,12.2,24.8c3.9,2.4,6.6,7,6.6,12.2v43h6.9V409c0-6.7,3-12.8,7.9-16.2C704.9,388.2,709.4,379.9,709.4,370.4
							z"/>
						<path id="XMLID_234_" class="st8" d="M519.5,395.5c0-10.2,68.8-18.3,60.1-17.7c-7.5,0.6-13.7,7.8-14.1,16.6
							c-0.3,7.4,3.1,13.8,8.3,16.9c2.7,1.6,4.4,4.7,4.4,8.3v29.2h4.7v-27c0-4.5,2.1-8.7,5.4-11C592.7,407.7,519.5,402,519.5,395.5z"
							/>
						<path id="XMLID_222_" class="st11" d="M606.3,385.1c0-12.2-8.7-21.9-19.3-21.1c-9.1,0.7-16.3,9.3-16.9,19.8
							c-0.4,8.8,3.7,16.5,9.9,20.2c3.3,1.9,5.4,5.7,5.4,9.9v35h5.6v-32.4c0-5.4,2.4-10.4,6.4-13.2
							C602.7,399.6,606.3,392.8,606.3,385.1z"/>
						<path id="XMLID_217_" class="st9" d="M557.9,363.7h-22.2c-4.3,0-7.8,4.1-7.8,9.1l0,0c0,5,3.5,9.1,7.8,9.1l0,0
							c5.7,0,10.4,5.4,10.4,12.1v54.8h1.5V394c0-6.7,4.6-12.1,10.4-12.1l0,0c4.3,0,7.8-4.1,7.8-9.1l0,0
							C565.7,367.8,562.2,363.7,557.9,363.7z"/>
						<path id="XMLID_235_" class="st9" d="M565.9,363.7h-22.2c-4.3,0-7.8,4.1-7.8,9.1l0,0c0,5,3.5,9.1,7.8,9.1l0,0
							c5.7,0,10.4,5.4,10.4,12.1v54.8h1.5V394c0-6.7,4.6-12.1,10.4-12.1l0,0c4.3,0,7.8-4.1,7.8-9.1l0,0
							C573.7,367.8,570.2,363.7,565.9,363.7z"/>
					</g>
					<g id="XMLID_238_">
						<path id="XMLID_292_" class="st11" d="M921.4,374.7h-19.3c-3.8,0-6.8,3.5-6.8,7.9l0,0c0,4.4,3,7.9,6.8,7.9l0,0
							c5,0,9,4.7,9,10.5v47.8h1.3V401c0-5.8,4-10.5,9-10.5l0,0c3.8,0,6.8-3.5,6.8-7.9l0,0C928.2,378.2,925.2,374.7,921.4,374.7z"/>
						<path id="XMLID_289_" class="st8" d="M918.5,343.2H891c-5.3,0-9.7,5-9.7,11.3l0,0c0,6.2,4.3,11.3,9.7,11.3l0,0
							c7.1,0,12.8,6.7,12.8,15v68h1.9v-68c0-8.3,5.7-15,12.8-15l0,0c5.3,0,9.7-5,9.7-11.3l0,0C928.2,348.3,923.9,343.2,918.5,343.2z
							"/>
						<path id="XMLID_286_" class="st8" d="M779.3,322.9h-32.9c-6.3,0-11.5,6-11.5,13.4l0,0c0,7.4,5.1,13.4,11.5,13.4l0,0
							c8.5,0,15.3,8,15.3,17.9v81.2h2.2v-81.2c0-9.9,6.8-17.9,15.3-17.9l0,0c6.3,0,11.5-6,11.5-13.4l0,0
							C790.7,328.9,785.6,322.9,779.3,322.9z"/>
						<path id="XMLID_283_" class="st11" d="M958.1,364H936c-4.3,0-7.8,4.1-7.8,9.1l0,0c0,5,3.5,9.1,7.8,9.1l0,0
							c5.7,0,10.4,5.4,10.4,12.1V449h1.5v-54.7c0-6.7,4.6-12.1,10.4-12.1l0,0c4.3,0,7.8-4.1,7.8-9.1l0,0
							C965.8,368,962.3,364,958.1,364z"/>
						<path id="XMLID_280_" class="st11" d="M867.4,384.2h-16.9c-3.3,0-5.9,3.1-5.9,6.9l0,0c0,3.8,2.7,6.9,5.9,6.9l0,0
							c4.4,0,7.9,4.1,7.9,9.2v41.7h1.1v-41.7c0-5.1,3.5-9.2,7.9-9.2l0,0c3.3,0,5.9-3.1,5.9-6.9l0,0
							C873.3,387.3,870.6,384.2,867.4,384.2z"/>
						<path id="XMLID_277_" class="st8" d="M837.3,369.6h-20.6c-4,0-7.3,3.8-7.3,8.5l0,0c0,4.7,3.3,8.5,7.3,8.5l0,0
							c5.3,0,9.7,5,9.7,11.3v51h1.4v-51c0-6.2,4.3-11.3,9.7-11.3l0,0c4,0,7.3-3.8,7.3-8.5l0,0C844.6,373.4,841.4,369.6,837.3,369.6z
							"/>
						<path id="XMLID_271_" class="st9" d="M812.7,395.5c0-10.2-7.4-18.3-16.1-17.7c-7.5,0.6-13.7,7.8-14.1,16.6
							c-0.3,7.4,3.1,13.8,8.3,16.9c2.7,1.6,4.4,4.7,4.4,8.3v29.2h4.7v-27c0-4.5,2.1-8.7,5.4-11C809.8,407.7,812.7,402,812.7,395.5z"
							/>
						<path id="XMLID_268_" class="st9" d="M899.5,385.1c0-12.2-8.7-21.9-19.3-21.1c-9.1,0.7-16.3,9.3-16.9,19.8
							c-0.4,8.8,3.7,16.5,9.9,20.2c3.3,1.9,5.4,5.7,5.4,9.9v35h5.6v-32.4c0-5.4,2.4-10.4,6.4-13.2
							C896,399.6,899.5,392.8,899.5,385.1z"/>
						<path id="XMLID_260_" class="st9" d="M851.2,363.7H829c-4.3,0-7.8,4.1-7.8,9.1l0,0c0,5,3.5,9.1,7.8,9.1l0,0
							c5.7,0,10.4,5.4,10.4,12.1v54.8h1.5V394c0-6.7,4.6-12.1,10.4-12.1l0,0c4.3,0,7.8-4.1,7.8-9.1l0,0
							C858.9,367.8,855.5,363.7,851.2,363.7z"/>
						<path id="XMLID_240_" class="st11" d="M783,363.7h-22.2c-4.3,0-7.8,4.1-7.8,9.1l0,0c0,5,3.5,9.1,7.8,9.1l0,0
							c5.7,0,10.4,5.4,10.4,12.1v54.8h1.5V394c0-6.7,4.6-12.1,10.4-12.1l0,0c4.3,0,7.8-4.1,7.8-9.1l0,0
							C790.7,367.8,787.3,363.7,783,363.7z"/>
					</g>
					<g id="XMLID_295_">
						<path id="XMLID_326_" class="st11" d="M1017.2,374.7h19.3c3.8,0,6.8,3.5,6.8,7.9l0,0c0,4.4-3,7.9-6.8,7.9l0,0
							c-5,0-9,4.7-9,10.5v47.8h-1.3V401c0-5.8-4-10.5-9-10.5l0,0c-3.8,0-6.8-3.5-6.8-7.9l0,0
							C1010.4,378.2,1013.4,374.7,1017.2,374.7z"/>
						<path id="XMLID_323_" class="st9" d="M1020,343.2h27.5c5.3,0,9.7,5,9.7,11.3l0,0c0,6.2-4.3,11.3-9.7,11.3l0,0
							c-7.1,0-12.8,6.7-12.8,15v68h-1.9v-68c0-8.3-5.7-15-12.8-15l0,0c-5.3,0-9.7-5-9.7-11.3l0,0
							C1010.4,348.3,1014.7,343.2,1020,343.2z"/>
						<path id="XMLID_317_" class="st8" d="M980.6,364h22.2c4.3,0,7.8,4.1,7.8,9.1l0,0c0,5-3.5,9.1-7.8,9.1l0,0
							c-5.7,0-10.4,5.4-10.4,12.1V449h-1.5v-54.7c0-6.7-4.6-12.1-10.4-12.1l0,0c-4.3,0-7.8-4.1-7.8-9.1l0,0
							C972.8,368,976.3,364,980.6,364z"/>
						<path id="XMLID_314_" class="st11" d="M1071.2,384.2h16.9c3.3,0,5.9,3.1,5.9,6.9l0,0c0,3.8-2.7,6.9-5.9,6.9l0,0
							c-4.4,0-7.9,4.1-7.9,9.2v41.7h-1.1v-41.7c0-5.1-3.5-9.2-7.9-9.2l0,0c-3.3,0-5.9-3.1-5.9-6.9l0,0
							C1065.3,387.3,1068,384.2,1071.2,384.2z"/>
						<path id="XMLID_311_" class="st11" d="M1101.2,369.6h20.6c4,0,7.3,3.8,7.3,8.5l0,0c0,4.7-3.3,8.5-7.3,8.5l0,0
							c-5.3,0-9.7,5-9.7,11.3v51h-1.4v-51c0-6.2-4.3-11.3-9.7-11.3l0,0c-4,0-7.3-3.8-7.3-8.5l0,0
							C1094,373.4,1097.3,369.6,1101.2,369.6z"/>
						<path id="XMLID_308_" class="st8" d="M936,370.4c0-15,10.8-27,23.8-26c11.1,0.8,20.1,11.4,20.8,24.4
							c0.5,10.8-4.5,20.3-12.2,24.8c-3.9,2.4-6.6,7-6.6,12.2v43h-6.9V409c0-6.7-3-12.8-7.9-16.2C940.4,388.2,936,379.9,936,370.4z"
							/>
						<path id="XMLID_305_" class="st9" d="M1125.8,395.5c0-10.2,7.4-18.3,16.1-17.7c7.5,0.6,13.7,7.8,14.1,16.6
							c0.3,7.4-3.1,13.8-8.3,16.9c-2.7,1.6-4.4,4.7-4.4,8.3v29.2h-4.7v-27c0-4.5-2.1-8.7-5.4-11
							C1128.8,407.7,1125.8,402,1125.8,395.5z"/>
						<path id="XMLID_302_" class="st9" d="M1039.1,385.1c0-12.2,8.7-21.9,19.3-21.1c9.1,0.7,16.3,9.3,16.9,19.8
							c0.4,8.8-3.7,16.5-9.9,20.2c-3.3,1.9-5.4,5.7-5.4,9.9v35h-5.6v-32.4c0-5.4-2.4-10.4-6.4-13.2
							C1042.7,399.6,1039.1,392.8,1039.1,385.1z"/>
						<path id="XMLID_299_" class="st8" d="M1087.4,363.7h22.2c4.3,0,7.8,4.1,7.8,9.1l0,0c0,5-3.5,9.1-7.8,9.1l0,0
							c-5.7,0-10.4,5.4-10.4,12.1v54.8h-1.5V394c0-6.7-4.6-12.1-10.4-12.1l0,0c-4.3,0-7.8-4.1-7.8-9.1l0,0
							C1079.6,367.8,1083.1,363.7,1087.4,363.7z"/>
						<path id="XMLID_296_" class="st11" d="M1155.6,363.7h22.2c4.3,0,7.8,4.1,7.8,9.1l0,0c0,5-3.5,9.1-7.8,9.1l0,0
							c-5.7,0-10.4,5.4-10.4,12.1v54.8h-1.5V394c0-6.7-4.6-12.1-10.4-12.1l0,0c-4.3,0-7.8-4.1-7.8-9.1l0,0
							C1147.8,367.8,1151.3,363.7,1155.6,363.7z"/>
					</g>
					<path id="XMLID_274_" class="st9" d="M1002.5,370.4c0-15-10.8-27-23.8-26c-11.1,0.8-20.1,11.4-20.8,24.4
						c-0.5,10.8,4.5,20.3,12.2,24.8c3.9,2.4,6.6,7,6.6,12.2v43h6.9V409c0-6.7,3-12.8,7.9-16.2
						C998.2,388.2,1002.5,379.9,1002.5,370.4z"/>
				</g>
				<g id="XMLID_298_">
					<g id="XMLID_190_">
						<path id="XMLID_78_" class="st12" d="M1113.4,236.2c-1.4,0-2.7,0.3-3.9,0.8v-11.5c0-16-11.1-29-24.8-29l0,0
							c-11.5,0-21.1,9.2-24,21.6c-3.2-2.9-7.2-4.6-11.5-4.6c-9.9,0-18.1,9-18.8,20.4c-1.2-0.5-2.5-0.7-3.8-0.7
							c-0.9,0-1.6,0.1-2.5,0.3v-7.9c0-16-11.1-29-24.8-29l0,0c-13.7,0-24.8,13-24.8,29v11.9c-1.5-0.8-3.2-1.3-5-1.3l0,0
							c-6.4,0-11.6,5.9-12,13.2h167.7C1125,242,1119.8,236.2,1113.4,236.2z"/>
						<g id="XMLID_189_">
							<path id="XMLID_62_" class="st13" d="M1018.9,285.6v12.2c0,5.5-3.8,9.9-8.5,9.9v-22.1h-2.3v64.6c0,7.2-4,13.4-9.7,15.5V248.1
								h-8.6V273c-2.6-1.7-4.3-4.9-4.3-8.6v-18.6h-2.3v18.6c0,5.2,2.7,9.7,6.6,11.6v173h8.5v-80.6c6.8-2.2,12-9.5,12-18.3v-39.7
								c6,0,10.8-5.7,10.8-12.6v-12.2L1018.9,285.6L1018.9,285.6z"/>
							<rect id="XMLID_178_" x="994.2" y="245.8" class="st14" width="1.3" height="203.3"/>
							<rect id="XMLID_183_" x="991.3" y="245.8" class="st14" width="1.3" height="203.3"/>
						</g>
						<g id="XMLID_156_">
							<path id="XMLID_34_" class="st14" d="M1054.3,245.8v38.3c0,3.7-2,6.9-4.8,8.2v-46.5h-5.7v96.1c-4.5-7.1-6.9-15.7-6.9-24.7
								v-71.4h-1.9v71.4c0,10.5,3.1,20.4,8.8,28.3v103.6h5.7V294.7c3.8-1.4,6.7-5.6,6.7-10.6v-38.3H1054.3z"/>
							<rect id="XMLID_186_" x="1046.7" y="245.8" class="st15" width="1.3" height="203.3"/>
						</g>
						<path id="XMLID_108_" class="st16" d="M1033.7,291.1c0-2.9-2.1-5.3-4.5-5.3c-0.5,0-1,0.1-1.5,0.3v-4.3c0-6-4.2-10.9-9.3-10.9
							l0,0c-4.4,0-8,3.5-9.1,8.2c-1.2-1.1-2.7-1.7-4.4-1.7l0,0c-3.8,0-6.8,3.4-7.1,7.7c-0.4-0.2-0.9-0.3-1.5-0.3l0,0
							c-2.5,0-4.5,2.4-4.5,5.3v1.2L1033.7,291.1L1033.7,291.1z"/>
						<path id="XMLID_75_" class="st17" d="M1041.5,251.7c0-4.1-2.8-7.4-6.3-7.4c-0.7,0-1.5,0.1-2.1,0.4v-6.1
							c0-8.5-5.9-15.3-13.1-15.3l0,0c-6.1,0-11.2,4.9-12.7,11.4c-1.7-1.5-3.8-2.4-6.1-2.4l0,0c-5.2,0-9.6,4.8-9.9,10.8
							c-0.6-0.3-1.3-0.4-2.1-0.4l0,0c-3.5,0-6.3,3.3-6.3,7.4v1.7L1041.5,251.7L1041.5,251.7z"/>
						<path id="XMLID_109_" class="st12" d="M987,237.4c0-4.1-2.8-7.4-6.3-7.4c-0.7,0-1.5,0.1-2.1,0.4v-6.1
							c0-8.5-5.9-15.3-13.1-15.3l0,0c-6.1,0-11.2,4.9-12.7,11.4c-1.7-1.5-3.8-2.4-6.1-2.4l0,0c-5.2,0-9.6,4.8-9.9,10.8
							c-0.6-0.3-1.3-0.4-2.1-0.4l0,0c-3.5,0-6.3,3.3-6.3,7.4v1.7L987,237.4L987,237.4z"/>
						<path id="XMLID_105_" class="st16" d="M1091.1,262.6c0-4.1-2.8-7.4-6.3-7.4c-0.7,0-1.5,0.1-2.1,0.4v-6.1
							c0-8.5-5.9-15.3-13.1-15.3l0,0c-6.1,0-11.2,4.9-12.7,11.4c-1.7-1.5-3.8-2.4-6.1-2.4l0,0c-5.2,0-9.6,4.8-9.9,10.8
							c-0.6-0.3-1.3-0.4-2.1-0.4l0,0c-3.5,0-6.3,3.3-6.3,7.4v1.7L1091.1,262.6L1091.1,262.6z"/>
						<path id="XMLID_59_" class="st17" d="M994.8,255.5c0-4.1-2.8-7.4-6.3-7.4c-0.7,0-1.5,0.1-2.1,0.4v-6.1
							c0-8.5-5.9-15.3-13.1-15.3l0,0c-6.1,0-11.2,4.9-12.7,11.4c-1.7-1.5-3.8-2.4-6.1-2.4l0,0c-5.2,0-9.6,4.8-9.9,10.8
							c-0.6-0.3-1.3-0.4-2.1-0.4l0,0c-3.5,0-6.3,3.3-6.3,7.4v1.7L994.8,255.5L994.8,255.5z"/>
						<path id="XMLID_71_" class="st16" d="M1040.4,258.8c-0.7,0-1.5,0.1-2.1,0.4v-6.1c0-8.5-5.9-15.3-13.1-15.3l0,0
							c-6.1,0-11.2,4.9-12.7,11.4c-1.7-1.5-3.8-2.4-6.1-2.4c-5.2,0-9.6,4.8-9.9,10.8c-0.6-0.3-1.3-0.4-2.1-0.4
							c-0.4,0-0.9,0.1-1.3,0.2v-4.2c0-8.5-5.9-15.3-13.1-15.3l0,0c-7.3,0-13.1,6.9-13.1,15.3v6.3c-0.8-0.4-1.7-0.7-2.7-0.7l0,0
							c-3.4,0-6.2,3.1-6.3,7h88.8C1046.5,261.9,1043.7,258.8,1040.4,258.8z"/>
					</g>
					<g id="XMLID_207_">
						<path id="XMLID_60_" class="st15" d="M552.9,245.8v38.3c0,3.7-2,6.9-4.8,8.2v-46.5h-5.6v96.1c-4.5-7.1-6.9-15.7-6.9-24.7
							v-71.4h-1.9v71.4c0,10.5,3.1,20.4,8.8,28.3v103.6h5.7V294.7c3.8-1.4,6.7-5.6,6.7-10.6v-38.3H552.9z"/>
						<path id="XMLID_58_" class="st15" d="M574.5,245.8v95c0,2.9-1.5,5.4-3.5,6.6V245.8h-5.7v203.3h5.7v-99.2
							c3.2-1.4,5.4-4.9,5.4-9v-95h-1.9V245.8z"/>
						<rect id="XMLID_155_" x="567.1" y="245.8" class="st18" width="1.3" height="203.3"/>
						<rect id="XMLID_162_" x="546.8" y="245.8" class="st18" width="1.3" height="203.3"/>
						<rect id="XMLID_167_" x="543.6" y="245.8" class="st18" width="1.3" height="203.3"/>
						<g id="XMLID_224_">
							<path id="XMLID_218_" class="st17" d="M574.5,253.9c0-3.2-2.2-5.8-5-5.8c-0.6,0-1.1,0.1-1.6,0.3v-4.8c0-6.6-4.6-12-10.3-12
								l0,0c-4.8,0-8.8,3.8-9.9,9c-1.3-1.2-3-1.9-4.8-1.9l0,0c-4.1,0-7.5,3.7-7.8,8.5c-0.5-0.2-1-0.3-1.6-0.3l0,0
								c-2.7,0-5,2.6-5,5.8v1.3L574.5,253.9L574.5,253.9z"/>
							<path id="XMLID_215_" class="st12" d="M531.8,242.7c0-3.2-2.2-5.8-5-5.8c-0.6,0-1.1,0.1-1.6,0.3v-4.8c0-6.6-4.6-12-10.3-12
								l0,0c-4.8,0-8.8,3.8-9.9,9c-1.3-1.2-3-1.9-4.8-1.9l0,0c-4.1,0-7.5,3.7-7.8,8.5c-0.5-0.2-1-0.3-1.6-0.3l0,0
								c-2.7,0-5,2.6-5,5.8v1.3L531.8,242.7L531.8,242.7z"/>
							<path id="XMLID_212_" class="st17" d="M520,262.4c0-2.7-1.9-4.8-4.1-4.8c-0.5,0-0.9,0.1-1.4,0.3v-4c0-5.5,72.3-10,67.6-10
								l0,0c-4,0-7.4,3.2-8.3,7.5c-1.1-1-2.5-1.6-4-1.6l0,0c-3.4,0-6.2,3.1-6.5,7.1c-0.4-0.2-0.9-0.3-1.4-0.3l0,0
								c-2.3,0-4.1,2.2-4.1,4.8v1.1L520,262.4L520,262.4z"/>
							<path id="XMLID_209_" class="st17" d="M537.9,256.9c0-3.2-2.2-5.8-5-5.8c-0.6,0-1.1,0.1-1.6,0.3v-4.8c0-6.6-4.6-12-10.3-12
								l0,0c-4.8,0-8.8,3.8-9.9,9c-1.3-1.2-3-1.9-4.8-1.9l0,0c-4.1,0-7.5,3.7-7.8,8.5c-0.5-0.2-1-0.3-1.6-0.3l0,0
								c-2.7,0-5,2.6-5,5.8v1.3L537.9,256.9L537.9,256.9z"/>
							<path id="XMLID_206_" class="st16" d="M573.6,259.5c-0.6,0-1.1,0.1-1.6,0.3V255c0-6.6-4.6-12-10.3-12l0,0
								c-4.8,0-8.8,3.8-9.9,9c-1.3-1.2-3-1.9-4.8-1.9c-4.1,0-7.5,3.7-7.8,8.5c-0.5-0.2-1-0.3-1.6-0.3c-0.3,0-0.7,0-1,0.1V255
								c0-6.6-4.6-12-10.3-12l0,0c-5.6,0-10.3,5.4-10.3,12v5c-0.6-0.3-1.3-0.5-2.1-0.5l0,0c-2.7,0-4.8,2.4-5,5.5h69.6
								C578.4,261.9,576.3,259.5,573.6,259.5z"/>
						</g>
					</g>
					<g id="XMLID_64_">
						<path id="XMLID_364_" class="st14" d="M1115.7,245.8v38.3c0,3.7-2,6.9-4.8,8.2v-46.5h-5.7v96.1c-4.5-7.1-6.9-15.7-6.9-24.7
							v-71.4h-1.9v71.4c0,10.5,3.1,20.4,8.8,28.3v103.6h5.7V294.7c3.8-1.4,6.7-5.6,6.7-10.6v-38.3H1115.7z"/>
						<path id="XMLID_363_" class="st14" d="M1137.3,245.8v95c0,2.9-1.5,5.4-3.5,6.6V245.8h-5.7v203.3h5.7v-99.2
							c3.2-1.4,5.4-4.9,5.4-9v-95h-1.9V245.8z"/>
						<rect id="XMLID_360_" x="1129.9" y="245.8" class="st15" width="1.3" height="203.3"/>
						<rect id="XMLID_357_" x="1109.7" y="245.8" class="st15" width="1.3" height="203.3"/>
						<rect id="XMLID_354_" x="1106.4" y="245.8" class="st15" width="1.3" height="203.3"/>
						<g id="XMLID_65_">
							<path id="XMLID_351_" class="st12" d="M1184.3,241.7c-1.1,0-2.1,0.2-3.1,0.6v-9c0-12.5-8.7-22.7-19.4-22.7l0,0
								c-9,0-16.6,7.2-18.8,16.9c-2.5-2.3-5.6-3.6-9.1-3.6c-7.8,0-14.2,7-14.7,16c-0.9-0.4-2-0.6-3-0.6c-0.7,0-1.3,0.1-1.9,0.2v-6.2
								c0-12.5-8.7-22.7-19.4-22.7l0,0c-10.7,0-19.4,10.2-19.4,22.7v9.4c-1.2-0.6-2.5-1-3.8-1l0,0c-5,0-9.1,4.6-9.3,10.4h131.5
								C1193.4,246.3,1189.3,241.7,1184.3,241.7z"/>
							<path id="XMLID_348_" class="st17" d="M1137.4,253.9c0-3.2-2.2-5.8-5-5.8c-0.6,0-1.1,0.1-1.6,0.3v-4.8c0-6.6-4.6-12-10.3-12
								l0,0c-4.8,0-8.8,3.8-9.9,9c-1.3-1.2-3-1.9-4.8-1.9l0,0c-4.1,0-7.5,3.7-7.8,8.5c-0.5-0.2-1-0.3-1.6-0.3l0,0
								c-2.7,0-5,2.6-5,5.8v1.3L1137.4,253.9L1137.4,253.9z"/>
							<path id="XMLID_342_" class="st16" d="M1176.3,262.4c0-3.2-2.2-5.8-5-5.8c-0.6,0-1.1,0.1-1.6,0.3v-4.8c0-6.6-4.6-12-10.3-12
								l0,0c-4.8,0-8.8,3.8-9.9,9c-1.3-1.2-3-1.9-4.8-1.9l0,0c-4.1,0-7.5,3.7-7.8,8.5c-0.5-0.2-1-0.3-1.6-0.3l0,0
								c-2.7,0-5,2.6-5,5.8v1.3L1176.3,262.4L1176.3,262.4z"/>
							<path id="XMLID_72_" class="st17" d="M1136.4,259.5c-0.6,0-1.1,0.1-1.6,0.3V255c0-6.6-4.6-12-10.3-12l0,0
								c-4.8,0-8.8,3.8-9.9,9c-1.3-1.2-3-1.9-4.8-1.9c-4.1,0-7.5,3.7-7.8,8.5c-0.5-0.2-1-0.3-1.6-0.3c-0.3,0-0.7,0-1,0.1V255
								c0-6.6-4.6-12-10.3-12l0,0c-5.6,0-10.3,5.4-10.3,12v5c-0.6-0.3-1.3-0.5-2.1-0.5l0,0c-2.7,0-4.8,2.4-5,5.5h69.6
								C1141.3,261.9,1139.1,259.5,1136.4,259.5z"/>
						</g>
					</g>
					<g id="XMLID_35_">
						<path id="XMLID_68_" class="st19" d="M641,308.1v43.7c-3.5-2.2-5.8-6.5-5.8-11.5v-32.2h-3.8v32.2c0,7.5,4,13.8,9.6,16.4v19
							c-10.8-2.9-18.9-14.2-18.9-27.7v-67.6h-3.8V348c0,16,9.8,29.3,22.8,32.2v68.9h10.8v-141H641z"/>
						<path id="XMLID_144_" class="st12" d="M698.1,294.1c-0.9,0-1.8,0.2-2.7,0.5v-7.8c0-10.9-7.5-19.8-16.9-19.8l0,0
							c-7.9,0-14.5,6.2-16.3,14.7c-2.1-2-4.9-3.2-7.9-3.2c-6.8,0-12.3,6.1-12.8,13.9c-0.9-0.3-1.7-0.5-2.7-0.5
							c-0.6,0-1.1,0.1-1.6,0.2v-5.4c0-10.9-7.5-19.8-16.9-19.8l0,0c-9.3,0-16.9,8.8-16.9,19.8v8.2c-1-0.5-2.1-0.9-3.4-0.9l0,0
							c-4.4,0-8,4-8.1,9h114.4C706,298.1,702.4,294.1,698.1,294.1z"/>
						<path id="XMLID_135_" class="st12" d="M661.5,306.1c-0.7,0-1.5,0.1-2.1,0.4v-6.1c0-8.5-5.9-15.3-13.1-15.3l0,0
							c-6.1,0-11.2,4.9-12.7,11.4c-1.7-1.5-3.8-2.4-6.1-2.4c-5.2,0-9.6,4.8-9.9,10.8c-0.6-0.3-1.3-0.4-2.1-0.4
							c-0.4,0-0.9,0.1-1.3,0.2v-4.2c0-8.5-5.9-15.3-13.1-15.3l0,0c-7.3,0-13.1,6.9-13.1,15.3v6.3c-0.8-0.4-1.7-0.7-2.7-0.7l0,0
							c-3.4,0-6.2,3.1-6.3,7H668C667.7,309.2,664.9,306.1,661.5,306.1z"/>
						<path id="XMLID_132_" class="st20" d="M680.1,312.2c-0.7,0-1.5,0.1-2.1,0.4v-6.1c0-8.5-5.9-15.3-13.1-15.3l0,0
							c-6.1,0-11.2,4.9-12.7,11.4c-1.7-1.5-3.8-2.4-6.1-2.4c-5.2,0-9.6,4.8-9.9,10.8c-0.6-0.3-1.3-0.4-2.1-0.4
							c-0.4,0-0.9,0.1-1.3,0.2v-4.2c0-8.5-5.9-15.3-13.1-15.3l0,0c-7.3,0-13.1,6.9-13.1,15.3v6.3c-0.8-0.4-1.7-0.7-2.7-0.7l0,0
							c-3.4,0-6.2,3.1-6.3,7h88.8C686.3,315.3,683.5,312.2,680.1,312.2z"/>
					</g>
					<g id="XMLID_196_">
						<g id="XMLID_191_">
							<path id="XMLID_66_" class="st21" d="M894.8,348.6v14c0,10.5,7,19,15.8,19.6v-4.9c0-2.1-1.5-3.8-3.3-3.8
								c-3,0-5.5-2.9-5.5-6.4v-19.7h2.2v19.7c0,2.1,1.5,3.8,3.3,3.8c3,0,5.5,2.9,5.5,6.4v9c0,3.6,2,6.7,4.7,7.9v-45.6h0.2v-3.7
								c0-1.2-0.9-2.2-1.9-2.2c-2.3,0-4.2-2.2-4.2-4.9v-4.6h2.2v4.6c0,1.2,0.9,2.2,1.9,2.2c2.3,0,4.2,2.2,4.2,4.9v3.7h4.4v-9.9
								c0-2.1,1.5-3.9,3.3-3.9c0.6,0,1-0.5,1-1.2v-3.3h2.2v3.3c0,2.1-1.5,3.9-3.3,3.9c-0.6,0-1,0.5-1,1.2v22.9l0,0V404
								c2-1.6,3.3-4.3,3.3-7.3v-48.1h2.2v48.1c0,4.5-2.2,8.5-5.5,10.4V449h-9.1v-52.1c-4-1.3-7-5.6-7-10.7v-1.5
								c-10.1-0.6-18.1-10.3-18.1-22.3v-14h2.5V348.6z"/>
							<rect id="XMLID_198_" x="924.9" y="355.4" class="st15" width="1.5" height="93.6"/>
							<rect id="XMLID_192_" x="920.7" y="355.4" class="st15" width="1.5" height="93.6"/>
						</g>
						<g id="XMLID_195_">
							<path id="XMLID_102_" class="st22" d="M975.6,343.2c0-6.4-4.4-11.7-10-11.7l0,0c-1.8,0-3.5,0.6-5,1.6
								c-1.3-6.9-6.5-12-12.8-12c-7.3,0-13.1,6.9-13.1,15.3v1.1c-0.9-0.5-1.8-0.8-2.9-0.8s-2.1,0.3-3.1,0.9v-1.3
								c0-8.5-5.9-15.3-13.1-15.3l0,0c-6.1,0-11.2,4.9-12.7,11.5c-1.5-6.6-6.6-11.5-12.7-11.5c-7.3,0-13.1,6.9-13.1,15.3v1.4
								c-0.9-0.7-2.1-1.1-3.3-1.1l0,0c-3.5,0-6.3,3.3-6.3,7.4v0.5h108.1L975.6,343.2L975.6,343.2z"/>
							<path id="XMLID_99_" class="st23" d="M955,350.8c0-4.1-2.8-7.4-6.3-7.4c-0.7,0-1.5,0.1-2.1,0.4v-6.1
								c0-8.5-5.9-15.3-13.1-15.3l0,0c-6.1,0-11.2,4.9-12.7,11.4c-1.7-1.5-3.8-2.4-6.1-2.4l0,0c-5.2,0-9.6,4.8-9.9,10.8
								c-0.6-0.3-1.3-0.4-2.1-0.4l0,0c-3.5,0-6.3,3.3-6.3,7.4v1.7L955,350.8L955,350.8z"/>
							<path id="XMLID_94_" class="st24" d="M938.6,358.9c0-4.1-2.8-7.4-6.3-7.4c-0.7,0-1.5,0.1-2.1,0.4v-6.1
								c0-8.5-5.9-15.3-13.1-15.3l0,0c-6.1,0-11.2,4.9-12.7,11.4c-1.7-1.5-3.8-2.4-6.1-2.4l0,0c-5.2,0-9.6,4.8-9.9,10.8
								c-0.6-0.3-1.3-0.4-2.1-0.4l0,0c-3.5,0-6.3,3.3-6.3,7.4v1.7L938.6,358.9L938.6,358.9z"/>
						</g>
					</g>
					<g id="XMLID_205_">
						<g id="XMLID_204_">
							<g id="XMLID_197_">
								<path id="XMLID_36_" class="st13" d="M675.5,245.8V305c0,1.7-1.2,3.1-2.7,3.1l0,0c-1.5,0-2.7-1.4-2.7-3.1v-59.2h-11.4v58.9
									c0,1.9-1.3,3.4-2.9,3.4l0,0c-1.6,0-2.9-1.5-2.9-3.4v-58.9H649v62.3v3v138h30.4v-138v-3v-62.3H675.5z"/>
								<rect id="XMLID_145_" x="664.3" y="256.2" class="st25" width="3.1" height="192.8"/>
								<rect id="XMLID_147_" x="651.6" y="256.2" class="st25" width="1.5" height="192.8"/>
							</g>
							<g id="XMLID_199_">
								<path id="XMLID_33_" class="st21" d="M633.1,280.4v23.5c0,17.6-11.8,32-26.6,32.9v-8.2c0-3.5,2.4-6.3,5.4-6.3
									c5,0,9.2-4.8,9.2-10.7v-33h-3.8v33c0,3.5-2.4,6.3-5.4,6.3c-5,0-9.2,4.8-9.2,10.7v15.2c0,6.1-3.3,11.2-8,13.2v-76.6h-0.3
									v-6.3c0-2,1.5-3.7,3.2-3.7c3.8,0,7-3.7,7-8.2v-7.7h-3.8v7.7c0,2-1.5,3.7-3.2,3.7c-3.8,0-7,3.7-7,8.2v6.3h-7.3v-16.6
									c0-3.6-2.5-6.5-5.6-6.5c-0.9,0-1.7-0.9-1.7-2v-5.6h-3.8v5.6c0,3.6,2.5,6.5,5.6,6.5c0.9,0,1.7,0.9,1.7,2v38.5l0,0v71.2
									c-3.3-2.8-5.4-7.2-5.4-12.3v-80.8h-3.8v80.8c0,7.6,3.8,14.3,9.2,17.5v70.4H595v-87.5c6.8-2.1,11.7-9.3,11.7-17.9v-2.5
									c16.9-1,30.5-17.4,30.5-37.4v-23.5L633.1,280.4L633.1,280.4z"/>
								<g id="XMLID_149_">
									<rect id="XMLID_150_" x="587.1" y="280.4" class="st15" width="3.1" height="168.7"/>
									<rect id="XMLID_160_" x="582.2" y="278.6" class="st15" width="1.5" height="170.5"/>
								</g>
							</g>
							<g id="XMLID_201_">
								<path id="XMLID_31_" class="st21" d="M751.3,280.4v23.5c0,17.6-11.8,32-26.6,32.9v-8.2c0-3.5,2.4-6.3,5.4-6.3
									c5,0,9.2-4.8,9.2-10.7v-33h-3.8v33c0,3.5-2.4,6.3-5.4,6.3c-5,0-9.2,4.8-9.2,10.7v15.2c0,6.1-3.3,11.2-8,13.2v-76.6h-0.3
									v-6.3c0-2,1.5-3.7,3.2-3.7c3.8,0,7-3.7,7-8.2v-7.7H719v7.7c0,2-1.5,3.7-3.2,3.7c-3.8,0-7,3.7-7,8.2v6.3h-7.3v-16.6
									c0-3.6-2.5-6.5-5.6-6.5c-0.9,0-1.7-0.9-1.7-2v-5.6h-3.8v5.6c0,3.6,2.5,6.5,5.6,6.5c0.9,0,1.7,0.9,1.7,2v38.5l0,0v71.2
									c-3.3-2.8-5.4-7.2-5.4-12.3v-80.8h-3.8v80.8c0,7.6,3.8,14.3,9.2,17.5v70.4h15.2v-87.5c6.8-2.1,11.7-9.3,11.7-17.9v-2.5
									c16.9-1,30.5-17.4,30.5-37.4v-23.5L751.3,280.4L751.3,280.4z"/>
								<g id="XMLID_146_">
									<path id="XMLID_153_" class="st15" d="M710,449h1.5V267.5c-1.3,0.6-1.5,1.8-1.5,1.8V449z"/>
									<rect id="XMLID_148_" x="699.3" y="265.7" class="st15" width="1.5" height="183.3"/>
									<rect id="XMLID_151_" x="703.5" y="280.4" class="st15" width="3.3" height="168.7"/>
								</g>
							</g>
						</g>
						<g id="XMLID_203_">
							<path id="XMLID_91_" class="st26" d="M777.5,285c0-4.1-2.8-7.4-6.3-7.4c-0.7,0-1.5,0.1-2.1,0.4v-6.1
								c0-8.5-5.9-15.3-13.1-15.3l0,0c-6.1,0-11.2,4.9-12.7,11.4c-1.7-1.5-3.8-2.4-6.1-2.4l0,0c-5.2,0-9.6,4.8-9.9,10.8
								c-0.6-0.3-1.3-0.4-2.1-0.4l0,0c-3.5,0-6.3,3.3-6.3,7.4v1.7L777.5,285L777.5,285z"/>
							<path id="XMLID_67_" class="st27" d="M728.9,248.2c0-7.2-5-13-11.1-13c-1.3,0-2.5,0.3-3.7,0.7v-10.7c0-14.9-10.4-27-23.1-27
								l0,0c-10.8,0-19.8,8.6-22.4,20.1c-3-2.7-6.7-4.3-10.8-4.3l0,0c-9.2,0-16.9,8.4-17.5,19c-1.1-0.4-2.3-0.7-3.6-0.7l0,0
								c-6.2,0-11.1,5.8-11.1,13v3h103.3V248.2z"/>
							<path id="XMLID_37_" class="st27" d="M654.9,251.3c0-4.1-2.8-7.4-6.3-7.4c-0.7,0-1.5,0.1-2.1,0.4v-6.1
								c0-8.5-5.9-15.3-13.1-15.3l0,0c-6.1,0-11.2,4.9-12.7,11.4c-1.7-1.5-3.8-2.4-6.1-2.4l0,0c-5.2,0-9.6,4.8-9.9,10.8
								c-0.6-0.3-1.3-0.4-2.1-0.4l0,0c-3.5,0-6.3,3.3-6.3,7.4v1.7L654.9,251.3L654.9,251.3z"/>
							<path id="XMLID_120_" class="st27" d="M611.6,249.8c0-4.1-2.8-7.4-6.3-7.4c-0.7,0-1.5,0.1-2.1,0.4v-6.1
								c0-8.5-5.9-15.3-13.1-15.3l0,0c-6.1,0-11.2,4.9-12.7,11.4c-1.7-1.5-3.8-2.4-6.1-2.4l0,0c-5.2,0-9.6,4.8-9.9,10.8
								c-0.6-0.3-1.3-0.4-2.1-0.4l0,0c-3.5,0-6.3,3.3-6.3,7.4v1.7L611.6,249.8L611.6,249.8z"/>
							<path id="XMLID_77_" class="st27" d="M753.6,255.5c0-4.1-2.8-7.4-6.3-7.4c-0.7,0-1.5,0.1-2.1,0.4v-6.1
								c0-8.5-5.9-15.3-13.1-15.3l0,0c-6.1,0-11.2,4.9-12.7,11.4c-1.7-1.5-3.8-2.4-6.1-2.4l0,0c-5.2,0-9.6,4.8-9.9,10.8
								c-0.6-0.3-1.3-0.4-2.1-0.4l0,0c-3.5,0-6.3,3.3-6.3,7.4v1.7L753.6,255.5L753.6,255.5z"/>
							<path id="XMLID_74_" class="st28" d="M707.3,286.4c0-2.6-1.8-4.8-4.1-4.8c-0.4,0-0.9,0.1-1.4,0.3V278c0-5.5-3.8-9.9-8.5-9.9
								l0,0c-3.9,0-7.2,3.1-8.1,7.4c-1.1-1-2.5-1.6-3.9-1.6l0,0c-3.4,0-6.2,3.1-6.4,6.9c-0.4-0.2-0.9-0.3-1.3-0.3l0,0
								c-2.2,0-4.1,2.1-4.1,4.8v1.1H707.3L707.3,286.4z"/>
							<path id="XMLID_69_" class="st29" d="M728.8,258.7c0-6.4-4.4-11.7-10-11.7l0,0c-1.8,0-3.5,0.6-5,1.6c-1.3-6.9-6.5-12-12.8-12
								c-7.3,0-13.1,6.9-13.1,15.3v1.1c-0.9-0.5-1.8-0.8-2.9-0.8s-2.1,0.3-3.1,0.9v-1.3c0-8.5-5.9-15.3-13.1-15.3l0,0
								c-6.1,0-11.2,4.9-12.7,11.5c-1.5-6.6-6.6-11.5-12.7-11.5c-7.3,0-13.1,6.9-13.1,15.3v1.4c-0.9-0.7-2.1-1.1-3.3-1.1l0,0
								c-3.5,0-6.3,3.3-6.3,7.4v0.5h108.1L728.8,258.7L728.8,258.7z"/>
							<path id="XMLID_41_" class="st27" d="M620.6,256.2c0-6.4-4.4-11.7-10-11.7l0,0c-1.8,0-3.5,0.6-5,1.6c-1.3-6.9-6.5-12-12.8-12
								c-7.3,0-13.1,6.9-13.1,15.3v1.1c-0.9-0.5-1.8-0.8-2.9-0.8s-2.1,0.3-3.1,0.9v-1.3c0-8.5-5.9-15.3-13.1-15.3l0,0
								c-6.1,0-11.2,4.9-12.7,11.5c-1.5-6.6-6.6-11.5-12.7-11.5c-7.3,0-13.1,6.9-13.1,15.3v1.4c-0.9-0.7-2.1-1.1-3.3-1.1l0,0
								c-3.5,0-6.3,3.3-6.3,7.4v0.5h108.1L620.6,256.2L620.6,256.2z"/>
							<path id="XMLID_63_" class="st29" d="M705.7,256.2c-1.1,0-2.1,0.3-3.2,0.7V254c0-10.1-7-18.4-15.7-18.4l0,0
								c-8.6,0-15.7,8.2-15.7,18.4v3.2c-1.1-0.6-2.4-1-3.8-1l0,0c-4.5,0-8.3,4.2-8.5,9.5h55.3C714,260.4,710.2,256.2,705.7,256.2z"
								/>
							<path id="XMLID_80_" class="st28" d="M658.9,282.3c0-4.1-2.8-7.4-6.3-7.4c-0.7,0-1.5,0.1-2.1,0.4v-6.1
								c0-8.5-5.9-15.3-13.1-15.3l0,0c-6.1,0-11.2,4.9-12.7,11.4c-1.7-1.5-3.8-2.4-6.1-2.4l0,0c-5.2,0-9.6,4.8-9.9,10.8
								c-0.6-0.3-1.3-0.4-2.1-0.4l0,0c-3.5,0-6.3,3.3-6.3,7.4v1.7L658.9,282.3L658.9,282.3z"/>
							<path id="XMLID_129_" class="st29" d="M589,266.1c0-3.9-2.7-7.1-6.1-7.1c-0.7,0-1.4,0.1-2,0.4v-5.8c0-8.1-5.6-14.6-12.5-14.6
								l0,0c-5.8,0-10.7,4.6-12.1,10.9c-1.6-1.5-3.6-2.3-5.8-2.3l0,0c-5,0-9.2,4.5-9.5,10.3c-0.6-0.2-1.3-0.4-2-0.4l0,0
								c-3.3,0-6.1,3.2-6.1,7.1v1.6L589,266.1L589,266.1z"/>
							<path id="XMLID_126_" class="st28" d="M589.9,281.4c0-3-2.1-5.5-4.7-5.5c-0.5,0-1,0.1-1.5,0.3v-4.5c0-6.3-4.4-11.4-9.8-11.4
								l0,0c-4.5,0-8.4,3.6-9.5,8.5c-1.3-1.1-2.8-1.8-4.5-1.8l0,0c-3.9,0-7.1,3.5-7.4,8c-0.5-0.2-0.9-0.3-1.5-0.3l0,0
								c-2.6,0-4.7,2.5-4.7,5.5v1.3L589.9,281.4L589.9,281.4z"/>
						</g>
					</g>
					<g id="XMLID_365_">
						<g id="XMLID_412_">
							<g id="XMLID_425_">
								<path id="XMLID_433_" class="st13" d="M822.5,310.8v19.3c0,14.4,9.7,26.2,21.8,27v-6.7c0-2.8-2-5.2-4.4-5.2
									c-4.2,0-7.5-4-7.5-8.8v-27.1h3.1v27.1c0,2.8,2,5.2,4.4,5.2c4.2,0,7.5,4,7.5,8.8v12.5c0,5,2.7,9.2,6.5,10.8v-62.8h0.3v-5.1
									c0-1.7-1.2-3-2.6-3c-3.2,0-5.7-3-5.7-6.7v-6.3h3.1v6.3c0,1.7,1.2,3,2.6,3c3.2,0,5.7,3,5.7,6.7v5.1h6v-13.6
									c0-2.9,2.1-5.3,4.5-5.3c0.8,0,1.5-0.8,1.5-1.7v-4.6h3.1v4.6c0,2.9-2.1,5.3-4.5,5.3c-0.8,0-1.5,0.8-1.5,1.7v31.6l0,0v58.4
									c2.7-2.3,4.4-5.9,4.4-10.1v-66.3h3.1v66.3c0,6.3-3.1,11.7-7.5,14.4v57.7h-12.5v-71.7c-5.6-1.7-9.6-7.7-9.6-14.7v-2.1
									c-13.9-0.8-25-14.2-25-30.6v-19.3L822.5,310.8L822.5,310.8z"/>
								<g id="XMLID_426_">
									<rect id="XMLID_430_" x="857.7" y="310.8" class="st25" width="2.6" height="138.2"/>
									<rect id="XMLID_427_" x="863" y="309.3" class="st25" width="1.3" height="139.7"/>
								</g>
							</g>
							<g id="XMLID_413_">
								<path id="XMLID_424_" class="st15" d="M725.8,310.8v19.3c0,14.4,9.7,26.2,21.8,27v-6.7c0-2.8-2-5.2-4.4-5.2
									c-4.2,0-7.5-4-7.5-8.8v-27.1h3.1v27.1c0,2.8,2,5.2,4.4,5.2c4.2,0,7.5,4,7.5,8.8v12.5c0,5,2.7,9.2,6.5,10.8v-62.8h0.3v-5.1
									c0-1.7-1.2-3-2.6-3c-3.2,0-5.7-3-5.7-6.7v-6.3h3.1v6.3c0,1.7,1.2,3,2.6,3c3.2,0,5.7,3,5.7,6.7v5.1h6v-13.6
									c0-2.9,2.1-5.3,4.5-5.3c0.8,0,1.5-0.8,1.5-1.7v-4.6h3.1v4.6c0,2.9-2.1,5.3-4.5,5.3c-0.8,0-1.5,0.8-1.5,1.7v31.6l0,0v58.4
									c2.7-2.3,4.4-5.9,4.4-10.1v-66.3h3.1v66.3c0,6.3-3.1,11.7-7.5,14.4v57.7h-12.4v-71.7c-5.6-1.7-9.6-7.7-9.6-14.7v-2.1
									c-13.9-0.8-25-14.2-25-30.6v-19.3L725.8,310.8L725.8,310.8z"/>
								<g id="XMLID_414_">
									<path id="XMLID_421_" class="st30" d="M759.5,449.1h-1.3V300.3c1,0.5,1.3,1.5,1.3,1.5V449.1z"/>
									<rect id="XMLID_418_" x="767.1" y="298.8" class="st30" width="1.3" height="150.2"/>
									<rect id="XMLID_415_" x="762.2" y="310.8" class="st30" width="2.7" height="138.2"/>
								</g>
							</g>
						</g>
						<g id="XMLID_366_">
							<path id="XMLID_403_" class="st31" d="M704.1,314.6c0-3.3,2.3-6.1,5.2-6.1c0.6,0,1.2,0.1,1.7,0.3v-5
								c0-6.9,4.8-12.6,10.8-12.6l0,0c5,0,9.2,4,10.4,9.4c1.4-1.3,3.1-2,5-2l0,0c4.3,0,7.9,3.9,8.1,8.8c0.5-0.2,1.1-0.3,1.6-0.3l0,0
								c2.8,0,5.2,2.7,5.2,6.1v1.4L704.1,314.6L704.1,314.6z"/>
							<path id="XMLID_400_" class="st26" d="M744.1,284.5c0-5.9,4.1-10.7,9.2-10.7c1,0,2.1,0.2,3,0.6v-8.8c0-12.2,8.5-22.2,19-22.2
								l0,0c8.8,0,16.2,7,18.3,16.5c2.5-2.2,5.5-3.5,8.8-3.5l0,0c7.6,0,13.9,6.9,14.4,15.6c0.9-0.4,1.9-0.6,2.9-0.6l0,0
								c5,0,9.2,4.8,9.2,10.7v2.5h-84.7V284.5z"/>
							<path id="XMLID_397_" class="st32" d="M804.8,287c0-3.3,2.3-6.1,5.2-6.1c0.6,0,1.2,0.1,1.7,0.3v-5c0-6.9,4.8-12.6,10.8-12.6
								l0,0c5,0,9.2,4,10.4,9.4c1.4-1.3,3.1-2,5-2l0,0c4.3,0,7.9,3.9,8.1,8.8c0.5-0.2,1.1-0.3,1.6-0.3l0,0c2.8,0,5.2,2.7,5.2,6.1
								v1.4L804.8,287L804.8,287z"/>
							<path id="XMLID_394_" class="st32" d="M840.3,285.8c0-3.3,2.3-6.1,5.2-6.1c0.6,0,1.2,0.1,1.7,0.3v-5
								c0-6.9,4.8-12.6,10.8-12.6l0,0c5,0,9.2,4,10.4,9.4c1.4-1.3,3.1-2,5-2l0,0c4.3,0,7.9,3.9,8.1,8.8c0.5-0.2,1.1-0.3,1.6-0.3l0,0
								c2.8,0,5.2,2.7,5.2,6.1v1.4L840.3,285.8L840.3,285.8z"/>
							<path id="XMLID_391_" class="st33" d="M706,273.8c0.6,0,1.2,0.1,1.7,0.3v-5c0-6.9,4.8-12.6,10.8-12.6l0,0c5,0,9.2,4,10.4,9.4
								c1.4-1.3,3.1-2,5-2c4.3,0,7.9,3.9,8.1,8.8c0.5-0.2,1.1-0.3,1.6-0.3c0.3,0,0.7,0,1,0.1v-3.4c0-6.9,4.8-12.6,10.8-12.6l0,0
								c5.9,0,10.8,5.6,10.8,12.6v5.2c0.7-0.3,1.4-0.5,2.1-0.5l0,0c2.7,0,5,2.5,5.2,5.7h-72.8C701,276.3,703.2,273.8,706,273.8z"/>
							<path id="XMLID_388_" class="st33" d="M723.8,290.4c0-3.3,2.3-6.1,5.2-6.1c0.6,0,1.2,0.1,1.7,0.3v-5
								c0-6.9,4.8-12.6,10.8-12.6l0,0c5,0,9.2,4,10.4,9.4c1.4-1.3,3.1-2,5-2l0,0c4.3,0,7.9,3.9,8.1,8.8c0.5-0.2,1.1-0.3,1.6-0.3l0,0
								c2.8,0,5.2,2.7,5.2,6.1v1.4L723.8,290.4L723.8,290.4z"/>
							<path id="XMLID_385_" class="st31" d="M761.7,315.8c0-2.2,1.5-3.9,3.3-3.9c0.3,0,0.8,0.1,1.1,0.2v-3.2c0-4.5,3.1-8.1,6.9-8.1
								l0,0c3.3,0,5.9,2.6,6.7,6c0.9-0.8,2-1.3,3.3-1.3l0,0c2.7,0,5,2.5,5.2,5.7c0.3-0.1,0.7-0.2,1.1-0.2l0,0c1.9,0,3.3,1.7,3.3,3.9
								v0.9H761.7L761.7,315.8z"/>
							<path id="XMLID_382_" class="st33" d="M744.2,293.1c0-5.3,3.7-9.6,8.2-9.6l0,0c1.5,0,2.9,0.5,4.1,1.3c1-5.6,5.4-9.9,10.5-9.9
								c5.9,0,10.8,5.6,10.8,12.6v0.9c0.7-0.4,1.5-0.7,2.3-0.7c0.9,0,1.8,0.3,2.6,0.8v-1c0-6.9,4.8-12.6,10.8-12.6l0,0
								c5,0,9.2,4,10.4,9.4c1.2-5.4,5.4-9.4,10.4-9.4c5.9,0,10.8,5.6,10.8,12.6v1.2c0.8-0.6,1.7-0.9,2.7-0.9l0,0
								c2.8,0,5.2,2.7,5.2,6.1v0.4h-88.9V293.1z"/>
							<path id="XMLID_379_" class="st29" d="M832.8,291c0-5.3,3.7-9.6,8.2-9.6l0,0c1.5,0,2.9,0.5,4.1,1.3c1-5.6,5.4-9.9,10.5-9.9
								c5.9,0,10.8,5.6,10.8,12.6v0.9c0.7-0.4,1.5-0.7,2.3-0.7c0.9,0,1.8,0.3,2.6,0.8v-1c0-6.9,4.8-12.6,10.8-12.6l0,0
								c5,0,9.2,4,10.4,9.4c1.2-5.4,5.4-9.4,10.4-9.4c5.9,0,10.8,5.6,10.8,12.6v1.2c0.8-0.6,1.7-0.9,2.7-0.9l0,0
								c2.8,0,5.2,2.7,5.2,6.1v0.4h-88.9V291z"/>
							<path id="XMLID_376_" class="st31" d="M763.1,291c0.9,0,1.8,0.2,2.6,0.6v-2.4c0-8.3,5.7-15,12.8-15l0,0
								c7.1,0,12.8,6.7,12.8,15v2.6c0.9-0.5,2-0.8,3.1-0.8l0,0c3.8,0,6.8,3.5,6.9,7.8H756C756.3,294.5,759.4,291,763.1,291z"/>
							<path id="XMLID_373_" class="st32" d="M801.5,312.4c0-3.3,2.3-6.1,5.2-6.1c0.6,0,1.2,0.1,1.7,0.3v-5
								c0-6.9,4.8-12.6,10.8-12.6l0,0c5,0,9.2,4,10.4,9.4c1.4-1.3,3.1-2,5-2l0,0c4.3,0,7.9,3.9,8.1,8.8c0.5-0.2,1.1-0.3,1.6-0.3l0,0
								c2.8,0,5.2,2.7,5.2,6.1v1.4L801.5,312.4L801.5,312.4z"/>
							<path id="XMLID_370_" class="st32" d="M858.7,299.2c0-3.2,2.2-5.8,5-5.8c0.6,0,1.1,0.1,1.6,0.3V289c0-6.6,4.6-12,10.3-12l0,0
								c4.8,0,8.7,3.8,9.9,8.9c1.3-1.2,3-1.9,4.8-1.9l0,0c4.1,0,7.4,3.7,7.8,8.4c0.5-0.2,1-0.3,1.6-0.3l0,0c2.7,0,5,2.6,5,5.8v1.3
								L858.7,299.2L858.7,299.2z"/>
							<path id="XMLID_367_" class="st29" d="M858,311.7c0-2.5,1.7-4.5,3.8-4.5c0.4,0,0.9,0.1,1.3,0.2v-3.7c0-5.2,3.6-9.4,8-9.4l0,0
								c3.8,0,6.8,3,7.8,7c1-0.9,2.3-1.5,3.8-1.5l0,0c3.3,0,5.8,2.9,6.1,6.6c0.4-0.2,0.8-0.2,1.2-0.2l0,0c2.1,0,3.8,2,3.8,4.5v1H858
								L858,311.7z"/>
						</g>
					</g>
				</g>
			</g>
			
				<linearGradient id="XMLID_50_" gradientUnits="userSpaceOnUse" x1="881.6641" y1="518.2" x2="881.6641" y2="418.2" gradientTransform="matrix(1 0 0 -1 0 598)">
				<stop  offset="0" style="stop-color:#FFC95C"/>
				<stop  offset="0.7767" style="stop-color:#FFC761;stop-opacity:0"/>
			</linearGradient>
			<ellipse id="XMLID_26_" class="st34" cx="881.7" cy="129.8" rx="42.8" ry="50"/>
			<g id="XMLID_12_">
				<g id="XMLID_2_">
					<rect id="XMLID_7_" x="525.4" y="446.1" class="st35" width="644.1" height="29.1"/>
					<rect id="XMLID_5_" x="525.4" y="446.1" class="st36" width="644.1" height="7.5"/>
					<path id="XMLID_575_" class="st37" d="M1170.2,512.4c-0.3,1-0.8,1.9-1.3,2.8c-1.7,3.3-4.3,5.8-7.8,7.1
						c-0.3,0.1-14.8-1.5-23.4,2.7c-1.3,0.6-2.5,1.4-3.4,2.4c-0.7,0.7-1.4,1.3-2.1,1.8c-0.7,0.5-1.4,1-2.1,1.5
						c-2.2,1.4-4.5,2.5-7.1,3c-0.9,0.2-1.9,0.3-2.8,0.3c-1.8,0-3.7-0.2-5.5-0.6c-2.6-0.7-5-1.8-7.4-3.3c-1.4-0.8-2.7-1.8-3.9-2.9
						c-0.3-0.3-0.6-0.5-0.9-0.8c-1.1-1-2.1-2.4-3-3.6c-0.5-0.7-1-1.4-1.5-2.1c-1.3-1.8-2.5-3.8-3.8-5.5c-0.7-0.9-1.4-1.8-2.1-2.6
						c-1.2-1.2-2.5-2.4-3.9-3c-3.5-1.6-7.1-1.6-10.6-0.6c-1,0.3-2.1,0.7-3,1.1c-3.3,1.5-6.3,3.8-9.2,6.4c-0.5,0.5-1,1-1.5,1.5
						c-0.8,0.8-1.5,1.6-2.3,2.5c-0.5,0.6-1,1.1-1.5,1.7c-1.6,1.8-3.3,3.7-4.9,5.4c-0.6,0.7-1.3,1.4-2,2c-0.8,0.8-1.5,1.5-2.3,2.4
						c-3.7,3.5-7.5,6.2-12,7.5c-0.5,0.1-1.1,0.3-1.6,0.3c-2.9,0.5-5.7,0.2-8.5-0.6c-5-1.5-9.8-5.1-14.2-9.4
						c-0.9-0.9-1.8-1.8-2.7-2.8c-2.7-2.9-5.1-5.9-7.5-8.9c-0.3-0.3-0.5-0.6-0.7-0.9c-4-5-8.7-10.1-13.7-13.9c-2.7-2-5.6-3.7-8.5-4.7
						c-4.1-1.4-8.3-1.6-12.5,0.1c-3.3,1.3-6,3.6-8.4,6.3c-4.3,4.8-7.6,11.2-11.1,16.9c-0.2,0.3-0.3,0.5-0.5,0.8
						c-0.9,1.4-1.9,2.9-3,4.2c-1.2,1.5-2.6,3.1-3.9,4.4c-1.4,1.3-2.8,2.6-4.4,3.5c-3.6,2.3-7.5,3.3-11.5,1.9c-3.3-1-6.1-3.5-8.9-5.7
						c-2.1-1.6-4.2-3.2-6.4-4c-1-0.4-2.1-0.6-3.2-0.6c-2.1,0-4,0.7-5.9,1.8c-0.9,0.5-1.7,1-2.5,1.7c-1.5,1.1-2.9,2.4-4.3,3.6
						c-1.3,1-2.6,2-3.9,2.9c-0.9,0.5-1.8,1-2.7,1.4c-0.9,0.4-1.9,0.6-2.8,0.7c-1.8,0.2-3.4-0.1-5-0.8c-4-1.6-7.6-5.4-11-9.1
						c-0.9-0.9-1.7-1.7-2.5-2.6c-0.5-0.5-1-1-1.6-1.4c-3.9-3-8.5-3.6-12.7-2c-1.7,0.6-3.4,1.5-5,2.9c-0.6,0.5-1.2,0.9-1.8,1.4
						c-2.8,2.3-5.6,4.4-8.6,6.3c-1,0.6-2.1,1.2-3.1,1.8c-1.8,1-3.6,1.8-5.5,2.5c-4.4,1.5-9.4,1.9-13.9,0.6c-1.1-0.3-2.1-0.8-3.2-1.3
						c-1.2-0.6-2.4-1.4-3.4-2.5c-6.6-5.9-10.2-17.7-18.3-18.9c-1.6-0.2-3.1,0-4.5,0.5c-0.9,0.3-1.9,0.8-2.8,1.4
						c-0.2,0.1-0.3,0.3-0.6,0.4c-1.4,0.9-2.7,2.1-4.1,3.4c-4.8,4.4-9.5,9.9-15.3,9.9c-2.3,0-4.4-0.7-6.2-2c-0.9-0.6-1.7-1.3-2.5-2
						c-1.9-1.8-3.6-4-5.4-6.3c-1.2-1.5-2.4-3.2-3.7-4.7c-1.7-2.1-3.6-4.1-5.6-5.5c-3.5-2.5-7.5-3.4-11.6-3.1c-1.5,0.1-3,0.4-4.5,0.8
						c-0.1,0-0.2,0.1-0.3,0.1c-0.9,0.2-1.8,0.5-2.7,0.9c-3,1.1-5.8,2.8-8.5,4.7c-1.1,0.8-2.2,1.6-3.3,2.6c-1.3,1.1-2.6,2.3-3.9,3.4
						c-3.5,3.2-6.8,6.7-10.4,9.7c-0.7,0.6-1.4,1.2-2.1,1.7c-1.3,1.1-2.7,2.1-4,3.1c-6.4,4.5-14.5,7.1-21.5,5c-0.9-0.3-1.8-0.6-2.7-1
						c-1.2-0.6-2.3-1.3-3.4-2.1c-5.7-4.7-8.6-13-12.2-20.1c-0.6-1.1-1.3-2.4-2.1-3.5c-0.4-0.7-0.9-1.3-1.4-1.9
						c-1.9-2.6-4.2-4.7-6.6-6c-2.1-1.1-4.4-1.6-6.7-1.1c-0.3,0.1-0.7,0.1-0.9,0.2c-3.6,1.1-6.7,4.2-10,6.3c-0.9,0.5-1.7,1-2.7,1.4
						c-0.2,0.1-0.4,0.2-0.6,0.2c-0.7,0.2-1.4,0.4-2.1,0.5c-0.9,0.2-1.7,0.2-2.5,0.2c-1.2,0-2.1-0.2-2.5-0.2
						c-2.4-0.4-4.7,0.4-5.6,0.6c0,0-4.1,0.9-20.3-9.4l0,0c-0.5,0-1,0-1.5,0.1c-3.4,0.4-6.5,1.9-9.3,4.2c-0.9,0.7-1.9,1.6-2.8,2.5
						c-1.8,1.7-5.4,5.7-6,5.7c-3.7-0.1-6.9,3.9-10.3,7.2c-0.7,0.7-1.5,1.4-2.2,2c-0.2,0.2-0.4,0.3-0.6,0.5
						c-5.6,4.2-12.7,2.5-18.1-2.3c-0.7-0.6-1.3-1.2-1.9-1.8c-2.4-2.6-4.4-5.7-5.6-9.2c-0.7-1.9-1.1-3.9-1.5-5.9c0,0-0.4-2.3-0.5-4.9
						c-0.2-4,0.2-14.7,1.3-28.9c214.7,0.5,429.5,1,644.2,1.6C1169.6,473.7,1175.6,497.8,1170.2,512.4z"/>
					<path id="XMLID_10_" class="st35" d="M539.1,486.4c-1.7,0-1.7,3.1,0,3.1C540.8,489.6,540.8,486.4,539.1,486.4z"/>
					<path id="XMLID_18_" class="st35" d="M538.2,500.2c-2,0-2,3.6,0,3.6C540.1,503.8,540.1,500.2,538.2,500.2z"/>
					<path id="XMLID_39_" class="st35" d="M533,477.3c-1,0-1.9,1.5-1.3,2.6c0.3,0.4,0.4,0.7,0.9,1c0.3,0.2,0.6,0.2,0.9,0
						c0.3-0.3,0.6-0.6,0.9-1C534.9,478.8,534.1,477.3,533,477.3z"/>
					<path id="XMLID_44_" class="st35" d="M544.2,516.2c-2.1,0-2.1,3.7,0,3.7C546.2,519.8,546.2,516.2,544.2,516.2z"/>
					<path id="XMLID_76_" class="st35" d="M622.9,488.4c-1.8,0-1.8,3.3,0,3.3C624.7,491.6,624.7,488.4,622.9,488.4z"/>
					<path id="XMLID_82_" class="st35" d="M602.3,482.7c-1.5,0-1.5,2.6,0,2.6C603.8,485.3,603.8,482.7,602.3,482.7z"/>
					<path id="XMLID_83_" class="st35" d="M604.1,500.9c-0.3-0.2-0.4-0.4-0.8-0.5c-0.2,0-0.2,0-0.1,0c0,0-0.1,0-0.2-0.1
						c-0.4-0.2-0.9-0.2-1.3-0.2c-0.9,0.1-1.7,0.8-1.6,1.9c0,1.1,0.7,1.9,1.6,1.9c1,0.1,1.6-0.1,2.3-0.8
						C604.6,502.6,604.6,501.4,604.1,500.9z"/>
					<path id="XMLID_86_" class="st35" d="M665.6,519.3c-0.7,0-0.7,1.3,0,1.3C666.3,520.7,666.3,519.3,665.6,519.3z"/>
					<path id="XMLID_345_" class="st35" d="M732.4,492.3c-0.6-0.4-1.1-0.3-1.7,0c-0.4,0.2-0.8,0.4-1,0.9s-0.3,1.1,0,1.6
						s0.6,0.7,1,0.9c0.6,0.3,1.1,0.4,1.7,0c0.5-0.4,0.9-1,0.9-1.7C733.2,493.3,732.9,492.6,732.4,492.3z"/>
					<path id="XMLID_386_" class="st35" d="M709.3,487.1c-2.1,0-2.1,3.7,0,3.7C711.3,490.9,711.3,487.1,709.3,487.1z"/>
					<path id="XMLID_390_" class="st35" d="M707.6,504.9c-1.2,0-1.2,2.1,0,2.1C708.8,507.1,708.8,504.9,707.6,504.9z"/>
					<path id="XMLID_392_" class="st35" d="M815.9,506.7c-0.2-0.5-0.3-0.8-0.6-1.2c-0.4-0.6-1.5-0.6-2,0c-0.3,0.4-0.4,0.8-0.6,1.2
						c-0.3,1.2,0.5,2.3,1.5,2.3C815.4,509.1,816.2,507.9,815.9,506.7z"/>
					<path id="XMLID_395_" class="st35" d="M792.3,480.8c-0.3-0.3-0.6-0.6-1.1-0.6c-0.3,0-0.5,0-0.8-0.1c-0.9,0-1.8,1-1.7,2
						c0,1.1,0.8,2.1,1.7,2c0.3,0,0.5,0,0.8-0.1c0.4-0.1,0.8-0.3,1.1-0.6C792.9,482.8,792.9,481.4,792.3,480.8z"/>
					<path id="XMLID_396_" class="st35" d="M824.8,506.5c-1.6,0-1.6,3,0,3S826.4,506.5,824.8,506.5z"/>
					<path id="XMLID_419_" class="st35" d="M774.3,484.1c-2.1,0-2.1,3.7,0,3.7C776.4,487.9,776.4,484.1,774.3,484.1z"/>
					<path id="XMLID_423_" class="st35" d="M798.3,512.3c-1.8,0-1.8,3.3,0,3.3C800,515.7,800,512.3,798.3,512.3z"/>
					<path id="XMLID_435_" class="st35" d="M838.9,494.5c-0.9-0.9-2-0.9-2.8,0c-0.3,0.3-0.5,0.6-0.8,0.9c-0.8,0.9-0.8,2.5,0,3.4
						s2.1,1,2.9,0c0.3-0.3,0.5-0.6,0.8-0.9C839.6,496.9,839.7,495.4,838.9,494.5z"/>
					<path id="XMLID_440_" class="st35" d="M859.8,506.1c-2.1,0-2.1,3.8,0,3.8C861.9,509.9,861.9,506.1,859.8,506.1z"/>
					<path id="XMLID_442_" class="st35" d="M883.3,483.5c-0.2-0.5-0.4-0.9-0.6-1.3c-0.5-1.2-2.1-0.1-1.6,1.1c0.4,0.8,0.7,1.8,1.5,2
						c0.2,0,0.4,0,0.5-0.2C883.4,484.5,883.5,484,883.3,483.5z"/>
					<path id="XMLID_443_" class="st35" d="M902,516.7c-0.1-0.5-0.3-0.9-0.6-1.2s-0.7-0.3-1,0s-0.5,0.7-0.6,1.2
						c-0.2,0.8,0.3,1.7,1.1,1.7C901.7,518.3,902.1,517.5,902,516.7z"/>
					<path id="XMLID_446_" class="st35" d="M900.1,494.6c-1.5,0-1.5,2.7,0,2.7C901.5,497.4,901.6,494.6,900.1,494.6z"/>
					<path id="XMLID_447_" class="st35" d="M942.8,492.1c-2.1,0-2.1,3.8,0,3.8C944.9,495.9,944.9,492.1,942.8,492.1z"/>
					<path id="XMLID_448_" class="st35" d="M966.8,486.9c-2.3,0-2.3,4.2,0,4.2S969.1,486.9,966.8,486.9z"/>
					<path id="XMLID_449_" class="st35" d="M993.3,490.5c-2.7,0-2.7,4.9,0,4.9C996,495.5,996,490.5,993.3,490.5z"/>
					<path id="XMLID_450_" class="st35" d="M938.6,512.1c-0.3,0-0.6-0.1-0.9-0.1c-0.9-0.1-1.7,1-1.7,2s0.8,2.1,1.7,2
						c0.3,0,0.6-0.1,0.9-0.1c0.9-0.1,1.6-0.8,1.6-1.9C940.1,512.9,939.5,512.2,938.6,512.1z"/>
					<path id="XMLID_451_" class="st35" d="M939.2,479.5c-0.6-0.4-1.6-0.3-2,0.6c-0.2,0.6-0.4,1.1-0.5,1.7c-0.1,0.3-0.1,0.5-0.1,0.8
						c0,0.9,0.9,1.7,1.6,1.1c0.3-0.2,0.4-0.4,0.6-0.6c0.2-0.1,0.3-0.3,0.4-0.6c0.2-0.2,0.3-0.5,0.3-0.7
						C940.1,481.1,939.9,479.9,939.2,479.5z"/>
					<path id="XMLID_452_" class="st35" d="M1013.8,499.2c-2.1,0-2.1,3.7,0,3.7C1015.9,502.8,1015.9,499.2,1013.8,499.2z"/>
					<path id="XMLID_453_" class="st35" d="M1003.6,484.1c-2.1,0-2.1,3.8,0,3.8C1005.6,487.9,1005.6,484.1,1003.6,484.1z"/>
					<path id="XMLID_454_" class="st35" d="M1020.7,521.1c-2.1,0-2.1,3.8,0,3.8C1022.8,524.9,1022.8,521.1,1020.7,521.1z"/>
					<path id="XMLID_456_" class="st35" d="M1044.6,518.3c-1.9,0-1.9,3.5,0,3.5C1046.5,521.7,1046.5,518.3,1044.6,518.3z"/>
					<path id="XMLID_457_" class="st35" d="M1088.7,493.5c-1-1.4-3.3-0.3-3.2,1.5c0,0.8,0.3,1.5,0.9,1.9c0.7,0.5,1.7,0.4,2.2-0.3
						c0.3-0.4,0.7-0.9,0.7-1.5C1089.4,494.4,1089,493.9,1088.7,493.5z"/>
					<path id="XMLID_458_" class="st35" d="M1120.1,486.8h-0.5c-2.4,0-2.4,4.4,0,4.4h0.5C1122.5,491.2,1122.5,486.8,1120.1,486.8z"
						/>
					<path id="XMLID_459_" class="st35" d="M1119.9,507.2c-0.3,0-0.7,0.1-1.1,0.1c-0.6,0.1-1.1,1-1.1,1.7s0.4,1.5,1.1,1.7
						c0.3,0.1,0.7,0.1,1.1,0.1c0.8,0.1,1.5-0.9,1.5-1.8C1121.5,508.1,1120.8,507.1,1119.9,507.2z"/>
					<path id="XMLID_460_" class="st35" d="M1152.1,494.6c-0.3-0.2-0.8-0.5-1.2-0.5c-0.3,0-0.6,0.1-0.9,0.3c-0.1,0-0.1,0-0.2,0
						c-0.7,0.1-1.4,0.7-1.4,1.6s0.6,1.5,1.4,1.6c0.1,0,0.1,0,0.2,0c0.3,0.2,0.5,0.3,0.9,0.3c0.4,0,0.9-0.3,1.2-0.5
						C1153,496.9,1153,495.1,1152.1,494.6z"/>
					<path id="XMLID_461_" class="st35" d="M1167.8,482.1c-2.1,0-2.1,3.9,0,3.9C1170,485.9,1170,482.1,1167.8,482.1z"/>
					<path id="XMLID_463_" class="st35" d="M1134.5,487.6c-1.5,0-1.5,2.8,0,2.8S1136,487.6,1134.5,487.6z"/>
					<g id="XMLID_4_">
						<path id="XMLID_472_" class="st38" d="M769.8,492.2c3.7,5.3,9.5,7.5,11.1,14.5c0.9,3.5,1,7.3,1.5,10.9c0.9-0.6,1.8-1,2.8-1.4
							c-0.3-2.2-0.6-4.5-0.9-6.9c-0.8-5.8-2.7-10-6.8-13.6c-5.4-4.7-8.5-9.6-9.6-16.8c0.1-1.2,0.3-2.4,0.3-3.7h-4.6
							c-0.1,0.1-0.1,0.3-0.2,0.4c-0.1-0.1-0.1-0.3-0.2-0.4h-3.4c-0.5,7.3,0.3,13.8-1.9,21c-2.3,7.2-6.7,11.7-11.1,17
							c-0.8,0.9-1.5,1.9-2.1,2.9c1.3,1.5,2.5,3.1,3.7,4.6c1.7-2.8,4.1-5,6.3-7.3c-0.3,4.2-0.6,8.4-0.9,12.6c0,0.3,0,0.6-0.1,0.9
							c0.9,0.8,1.6,1.4,2.5,2c0-0.7,0-1.3,0.1-1.9c0.2-5.1,0.2-10.3,0.2-15.4c0.9-1.1,1.9-2.3,2.7-3.5c0.7-1.1,1.3-2.4,2-3.7
							c0.8,4.6,2.6,8.4,7,10.3c2.9,1.3,6,1.4,8.3,4.2c0.5,0.7,1,1.4,1.5,2.2l0,0c1.4-1.2,2.7-2.3,4.1-3.3c-1.3-2.7-2.8-5.1-5.3-6.7
							c-2.1-1.4-4.7-1.7-6.7-3c-3-2.1-3.1-6.1-3.3-9.8c-0.3-3.8,0-7.5,0.4-11.2C767.7,488.9,768.7,490.6,769.8,492.2z"/>
						<path id="XMLID_479_" class="st38" d="M945.6,527c1-1.3,2.1-2.7,3-4.1c-1.8-0.4-3.7-0.8-5.4-1.4c-4.2-1.5-7.4-4.5-10.7-7.7
							c-0.9-1.5-1.3-3-1.6-5.7c-0.4-4.2-0.7-8.5-0.9-12.7c-0.2-4.2-0.3-8.5-0.5-12.8c0-1.3-0.5-4.5-0.7-7.5h-10.3
							c-0.5,5.1,0.3,11,0.5,15.7c0.1,3.3,0.4,6.9-0.4,10.2c-0.7,2.6-2.2,4.8-3.6,7c-3,3.2-7.3,5-11,7c-2.5,1.4-5.1,2.7-7.7,4.2
							c-0.9-1-1.9-2-3-2.9c-1.5-1.1-3-2.1-4.6-3c0-0.1-0.1-0.1-0.1-0.2c-2.4-3.3-5.6-4.2-8.6-6c-3.4-2-5.3-5.7-6.2-9.9
							c-1.7-7-2-14.6-2.7-21.9h-3.9c-0.1,0.7-0.1,1.4-0.2,2.2c-0.1-0.2-0.1-0.3-0.2-0.5c0-0.1-0.1-0.2-0.2-0.3
							c0.1-0.4,0.2-0.9,0.1-1.4h-12.6c-0.4,3.4-0.5,7-0.7,10.3c-0.3,6.2-0.7,12.8-0.2,19c-3.6,5.2-8.8,8.8-14.6,9.1
							c-5.7,0.3-11.1-1.3-16.4,1.9c-4.3,2.6-7.4,7.2-9.3,12.3c-0.9,2.4-1.5,4.8-1.6,7.4c0,0.3,0,0.8,0,1.3c1,0.5,2.1,1,3.2,1.3
							c0.1-8.1,3.7-16.2,10.2-19.6c3.8-2,7.8-1,11.9-0.9c3.3,0.1,6.6-0.4,9.7-1.9c0.9-0.5,1.9-1.1,2.7-1.7c-0.9,1.4-1.9,2.8-3,4
							c-2.6,3.1-5.9,5-8.6,7.9c-1.8,2-3,5.5-3.6,9.2c1-0.5,2.1-1.2,3.1-1.8c0.4-2.6,1.1-4.7,2.9-6.7c1-1.1,2.3-1.9,3.4-2.9
							c1.2-1.1,2.4-2.3,3.4-3.6c-0.6,2.2-1,4.6-1.3,7c0.6-0.5,1.2-0.9,1.8-1.4c1.5-1.3,3.3-2.2,5-2.8c1.3-3.4,3.3-6.1,5.6-9
							c0.3-0.4,0.5-0.7,0.8-1.1c0.1,0.1,0.3,0.1,0.4,0.1c0.9,2.4,2.3,4.5,3.7,7c0.9,1.6,1.6,3.3,2.2,5c0.5,0.4,1.1,0.9,1.6,1.4
							c0.9,0.8,1.7,1.7,2.5,2.5c-0.4-2-0.9-4-1.7-5.9c-1.5-4.3-4.1-7.8-5.7-12c-0.2-0.4-0.3-0.9-0.4-1.3c2.1-4.3,4.3-9,5.6-13.8
							c0.3,0.4,0.4,0.9,0.7,1.3c1.3,7.1,4.2,13.3,10.2,16.5c1,2,2.1,4,2.4,6.5c0.8,4.8,0.1,9.5-0.1,14.3c0,0.9,0,2,0,3.3
							c1.6,0.6,3.3,0.9,5,0.8c0.9-0.1,1.9-0.3,2.8-0.7c-0.3-2,0.1-4,1.2-6.1c0.3,0.9,0.4,1.8,0.8,2.7c0.3,0.7,0.5,1.4,0.8,2
							c1.3-0.8,2.6-1.8,3.8-2.8c-0.7-2.1-1.1-4.3-1.5-6.5c1.1-0.9,2.2-1.8,3.4-2.5c0.9,1.8,1.7,3.6,2.4,5.6c0.8-0.6,1.6-1.2,2.5-1.7
							c-0.7-1.9-1.5-3.7-2.4-5.3c1.4-0.8,2.8-1.5,4.1-2.3c2.5-1.4,5.6-2.9,8.6-4.8c-1,3.6-1.5,7.5-1.2,11.2c2.2,0.8,4.4,2.3,6.4,3.9
							c-0.3-4.3-0.9-8.3,0.8-12.8c1.7-4.6,5-8.2,6.7-12.8c0.2,2,0.3,4,0.5,6c0.3,2.9,1,5.5,2.7,7.7c1.2,1.6,2.8,2.6,3.9,4.3
							c0.9,1.5,1.4,3.3,2.1,5c0.9,2.5,2,4.5,3.7,6.2c1.5-0.9,3-2.1,4.4-3.4c-1.5-1.8-2.6-3.8-3.3-6.6c-0.1-0.3-0.2-0.5-0.3-0.7
							c1.1,0.7,2.2,1.3,3.3,1.8C942.8,526.3,944.2,526.7,945.6,527z M884.8,531.7c0.2-2.2,0.3-4.4,0.3-6.6c0-2.1-0.3-5.3-1-8.3
							c1.5,1.4,2.7,3.3,3.4,6.2c0.3,1,0.4,1.9,0.7,2.9C886.7,527.6,885.5,529.6,884.8,531.7z M892.3,522.1c-0.3-1.2-0.5-2.4-0.9-3.6
							c0.9,0.7,1.8,1.5,2.7,2.3C893.4,521.2,892.8,521.6,892.3,522.1z"/>
						<path id="XMLID_488_" class="st38" d="M1064.1,505.4c3.5,1.6,7,2.9,10.1,5.3c1-0.5,2.1-0.8,3-1.1c-0.2-0.2-0.3-0.4-0.5-0.5
							c-5.2-4.9-18.1-6.5-21.3-14.4c-0.2-5.8-0.3-11.6-0.8-17.3c-0.1-0.9-0.4-1.6-0.9-2.1c-0.9-0.8-2.1-0.9-3,0
							c-0.2,0.2-0.4,0.4-0.6,0.7c-0.2,0.2-0.3,0.5-0.3,0.7l0,0c-0.1,0-0.2,0-0.3,0c0-0.5-0.1-0.9-0.2-1.4h-4.4
							c-0.5,3.4-0.4,7.1-0.6,10.5c-0.3,4.3-0.3,8.5-0.5,12.8c-0.3,0.4-0.4,0.7-0.7,1.1c-5.6,2.4-11.4,4.5-17.3,5.5c0,0,0,0-0.1,0
							c-2.1-0.4-4.1-0.4-6.1,1c-1,0.3-2.1,0.6-3.1,1.1c-0.3,0.2-0.7,0.4-0.9,0.5c-0.2-0.1-0.3-0.2-0.5-0.3
							c-6.6-3.6-14.8-8.6-17.7-16.9c0-0.2,0-0.4,0-0.6c-0.1-4.8-0.1-9.8-0.4-14.7h-7c-0.4,2.6-0.6,5.2-0.5,7.8
							c-0.3,0.3-0.6,0.9-0.4,1.5c2.7,11.4-18.7,11.9-24.3,13.8c-2.7,0.9-4.3,2.6-4.6,5.9c-0.1,0.5-0.1,1-0.2,1.5
							c2.4-2.7,5.1-4.9,8.4-6.2c4.2-1.6,8.4-1.5,12.5-0.1c0.3-0.1,0.8-0.2,1.1-0.3c2.8-0.9,6-2.6,8-5.2c0.1,3.4,0,6.8-0.7,10
							c5,3.7,9.8,8.7,13.7,13.6c0.3,0.3,0.4,0.6,0.7,0.9c0-0.1-0.1-0.3-0.1-0.4c3.3-2.3,6.7-4.4,10-6.5c0.3,0.3,0.8,0.5,1.1,0.8
							c-2.1,4.3-3.3,9.8-3.5,14.8c0.9,0.9,1.8,1.9,2.7,2.7c0.2-5.3,0.3-10.3,2.5-15.5c0.2-0.3,0.3-0.6,0.4-0.9
							c0.2,0,0.3,0.1,0.4,0.2c3.1,1.9,5.7,4.2,6.4,8.8c0.7,4.2,1.2,7.8,3.5,11.3c0.7,1.1,1.5,2,2.3,3c-0.5,0.8-0.9,1.7-1.4,2.5
							c2.7,0.8,5.6,1.1,8.5,0.6c0.6-0.1,1.1-0.2,1.6-0.3c-0.7-0.7-1.5-1.4-2.1-2.1c0.5-0.8,1-1.5,1.5-2.2c2.8-3.9,6.4-7,8.9-11.2
							c1.6,2.5,2.5,5.5,3.8,8.4c0.8-0.7,1.5-1.5,2.3-2.3c-0.3-0.7-0.7-1.5-0.9-2.4c-0.9-2.5-2.1-4.9-3.6-6.9
							c0.2-0.4,0.3-0.8,0.4-1.1c0.9-3.1,1.4-6.3,1.5-9.6c0.2,2.7,0.4,5.3,0.9,7.9c0.6,3.8,1.7,7.2,3.8,10.1c1.6-1.8,3.3-3.6,4.9-5.3
							c-0.9-1.5-1.7-3.2-2.1-5.2c-0.3-1.5-0.6-3-0.8-4.4c2,2.1,4.4,3.9,6.8,5.6c0.5-0.5,1-1,1.5-1.5c-3.2-2.2-6.4-4.4-8.8-7.3
							c-0.4-3.6-0.6-7.3-0.7-10.9C1057.7,501.8,1061,504,1064.1,505.4z M1010,511.4c-2,1.2-4.3,2.6-6.8,4.2c-0.5-2-1-4-1.8-5.9
							c-1.2-3-2.7-5.7-3.3-9c-0.1-0.7-0.3-1.4-0.3-2.2c1.3,2.1,2.8,4,4.6,5.6c2.7,2.5,5.9,4.4,9,6.2
							C1011.1,510.8,1010.6,511.1,1010,511.4z M1041.5,501.8c-2,2-4.4,3.6-7,4.2c-0.9,0.2-1.9,0.3-2.8,0.2
							C1035.1,505.2,1038.3,503.7,1041.5,501.8z M1037,525.6c-0.9,1.1-2.8,3.8-5,7.2c-1.7-2.2-3.2-4.6-3.8-7.8
							c-0.7-3.6-0.9-7.3-2.7-10.2c5.6,0.2,11.3,0.9,16.2,4.1C1040.5,521.3,1038.7,523.3,1037,525.6z M1043.1,515.3
							c0,0.2-0.1,0.3-0.2,0.5c-3.3-2.1-7-3.4-10.7-3.9c-2.8-0.4-6.2-0.1-9.6-0.2c-1-0.8-2.1-1.5-3.3-2.1c0.3-0.4,0.6-0.7,0.9-1
							c2-0.5,3.9-0.8,5.9-1.2c2.1,0.5,3.9,1.3,6.2,1.2c4.5-0.2,8.6-2.5,11.5-6.1C1043.9,506.8,1044,511.2,1043.1,515.3z
							 M1163.1,508.9c-5.2-2.6-11-3.6-16.1-6.3c-3-1.6-5.5-4-7.1-7c0-0.9,0-1.8-0.1-2.8c-0.2-5.4-0.5-11.9-2-17.5h-6.5
							c0.3,6.1,1.5,12.4,1.5,18.5c0,1.6,0,3.1,0,4.6c-4.4,4-9.4,6.8-14.8,8.4c-0.1-0.1-0.1-0.2-0.2-0.3c-1.3-2.5-2.4-5.2-3.3-8
							c-0.1-2.6-0.2-5.2-0.3-7.8c-0.3-4.4,0.3-10.7-1-15.4h-4.4c-1.2,5-0.3,11.6-0.3,16.3c0,0.4,0,0.8,0,1.3c0,0.1,0,0.2,0,0.3
							c0,0.4,0,0.7,0,1.1c0,0.2,0,0.4,0,0.7c-0.1,7.5-4.2,14.1-10.4,16.4c-2.1,0.8-4.2,1.2-6.3,1.8c0.8,0.8,1.5,1.6,2.1,2.5
							c1.4-0.4,2.8-0.8,4.2-1.2c2.1-0.7,3.8-1.8,5.5-3.1c-0.2,0.2-0.4,0.4-0.6,0.7c-2.1,2.7-3.9,5.8-5.3,9c0.5,0.7,0.9,1.4,1.5,2.1
							c2.6-3.3,4.4-7.9,7.4-10.3c0.3-0.3,0.7-0.5,1.1-0.6c-0.9,5.5-3.1,9.7-5.6,14.4c0.3,0.3,0.6,0.6,0.9,0.8c1.3,1,2.6,2,3.8,2.8
							c1.2-1.8,2.5-3.6,3.5-5.5c0.5-1.1,1-2.2,1.5-3.4c0,1.8,0.1,3.6,0.4,5.5c0.4,2.3,1.2,4.5,2.1,6.6c1.8,0.5,3.6,0.7,5.5,0.6
							c-0.9-2.7-2.1-5.2-2.7-7.2c-1.7-5.3-1.5-10.9-2.1-16.3c0.4,0,0.8-0.1,1.2-0.2c1.4,2.4,2.8,4.8,4.6,7.1c1.3,1.6,2.4,3.2,3.3,5
							c-0.9,3.4-1.4,6.9-1.5,10.6c0,0.2,0,0.5,0,0.7l0,0c2.6-0.5,5-1.5,7.1-2.9c-0.3-1.3-0.6-2.8-0.8-4.2c0.7-2.4,1.6-4.7,2.7-6.9
							c-0.3,3.2-0.4,6.5,0.2,9.6c0.8-0.6,1.5-1.2,2.1-1.8c0.9-0.9,2.1-1.7,3.4-2.3c-0.3-3.2,0-6.6,0-9.8c0-2.1,0.1-4.1,0.1-6.2
							c1.2-2.8,1.8-5.6,2.1-8.6c2,2.4,4.4,4.4,7.4,5.7c5,2.3,10.2,3.4,15.1,5.8c1.8,0.8,4.2,2,6.6,3.6c0.5-0.9,0.9-1.8,1.3-2.7
							C1167.1,511,1164.5,509.5,1163.1,508.9z M1108.2,508.5c-1.2,0.3-2.2,0.7-3.3,1.5c1.4-1.5,2.6-3.1,3.5-5
							C1108.4,506.1,1108.3,507.3,1108.2,508.5z M1131.6,505.3c-1.1,3.2-2.9,5.9-4.4,8.9c-0.6,1.1-1,2.3-1.5,3.5
							c-1.8-2.8-4-5.3-5.9-8c4.6-1.6,8.9-4.3,12.7-7.7C1132.3,503,1132.1,504.1,1131.6,505.3z"/>
					</g>
				</g>
				<g id="XMLID_8_">
					<path id="XMLID_15_" class="st37" d="M554.9,533.4c-4.4,0-4.5,8.1,0,8.1C559.3,541.6,559.4,533.4,554.9,533.4z"/>
					<path id="XMLID_19_" class="st37" d="M582.3,535.9c-0.9,0-1.5,1-1.4,2.1c0,0.1,0,0.2,0.1,0.3c0.3,1.5,2.3,1.5,2.6,0
						c0-0.1,0-0.2,0.1-0.3C583.8,536.9,583.2,535.9,582.3,535.9z"/>
					<path id="XMLID_21_" class="st37" d="M515.5,524.1c-0.1,0-0.2-0.1-0.3-0.1c-1.1-0.4-2.2,0.7-2.2,2s1.1,2.3,2.2,2
						c0.1,0,0.2-0.1,0.3-0.1C517.1,527.3,517.1,524.7,515.5,524.1z"/>
					<path id="XMLID_40_" class="st37" d="M535.6,533.5c-1.7,0-1.7,3.1,0,3.1C537.3,536.5,537.3,533.5,535.6,533.5z"/>
					<path id="XMLID_55_" class="st37" d="M568.1,555.4c-2.3,0-2.3,4.2,0,4.2C570.4,559.6,570.4,555.4,568.1,555.4z"/>
					<path id="XMLID_131_" class="st37" d="M568.5,532.3c-1.5,0-2.8,1.5-2.7,3.2s1.2,3.2,2.7,3.2c1.5,0,2.8-1.5,2.7-3.2
						S570.1,532.3,568.5,532.3z"/>
					<path id="XMLID_242_" class="st37" d="M583.1,511.7c-2.1,0-2.1,3.7,0,3.7C585.1,515.3,585.1,511.7,583.1,511.7z"/>
					<path id="XMLID_244_" class="st37" d="M612.2,528.6c-0.8,0-1.8,0.9-1.6,1.9c0,0.1,0,0.2,0,0.3c0.1,1,0.7,2,1.6,1.9
						c0.9-0.1,1.5-0.8,1.6-1.9c0-0.1,0-0.2,0-0.3C614,529.5,613,528.5,612.2,528.6z"/>
					<path id="XMLID_246_" class="st37" d="M625.9,553.2c-1.5,0-1.5,2.6,0,2.6C627.3,555.8,627.3,553.2,625.9,553.2z"/>
					<path id="XMLID_247_" class="st37" d="M597.6,540.8c-0.1-0.1-0.2-0.2-0.3-0.3c-0.1-0.1-0.2-0.2-0.3-0.3c-0.9-0.7-2,0.3-2,1.3
						c0,1.1,1.2,2.1,2,1.3c0.1-0.1,0.3-0.2,0.3-0.3s0.3-0.2,0.3-0.3C598,541.8,598,541.2,597.6,540.8z"/>
					<path id="XMLID_444_" class="st37" d="M634.8,521.7c-0.4-0.6-1-1.2-1.7-1.4c-0.9-0.2-2-0.2-2.7,0.4c-0.5,0.3-0.9,0.8-1.2,1.4
						c-0.3,0.4-0.3,0.9-0.4,1.4c-0.2,1.3,0.3,2.2,0.9,3.2c0,0,0,0,0,0.1c0.8,1.1,2.1,1.3,3.3,1h0.1c0.7-0.2,1.3-0.8,1.7-1.4
						c0.4-0.7,0.7-1.4,0.7-2.3l0,0C635.4,523.2,635.2,522.4,634.8,521.7z"/>
					<path id="XMLID_445_" class="st37" d="M642.9,542.6c-0.9-0.6-1.9-0.2-2.4,0.7c-0.6,1.1,0,2.7,1,3c0.7,0.2,1.4,0,1.8-0.7
						C644,544.6,643.7,543.2,642.9,542.6z"/>
					<path id="XMLID_455_" class="st37" d="M709.9,539.4c-0.1-0.5-0.5-1-0.9-1.1c-0.4-0.1-0.8-0.1-1.2,0.2c-0.3,0.2-0.4,0.4-0.7,0.6
						c-0.6,0.6-0.5,1.9,0,2.5s1.6,0.8,2.1,0c0.2-0.3,0.4-0.5,0.5-0.8C710,540.3,709.9,539.9,709.9,539.4z"/>
					<path id="XMLID_462_" class="st37" d="M683.8,545.7c-0.1-0.4-0.3-0.7-0.4-1c-0.6-1-1.8-1.3-2.6-0.4c-0.8,0.9-0.6,2.4,0.3,3
						c0.3,0.2,0.6,0.4,0.9,0.5C683,548.2,684.1,547,683.8,545.7z"/>
					<path id="XMLID_476_" class="st37" d="M695.6,557.2c-1.3,0-1.3,2.3,0,2.3S696.9,557.2,695.6,557.2z"/>
					<path id="XMLID_483_" class="st37" d="M723,519.3c-0.7,0-1.5,0.8-1.5,1.7c0,0.3,0.1,0.6,0.1,0.9c0.3,1.5,2.4,1.5,2.7,0
						c0.1-0.3,0.1-0.6,0.1-0.9C724.5,520.1,723.7,519.3,723,519.3z"/>
					<path id="XMLID_484_" class="st37" d="M749.8,534.9c-0.8-1.6-2.6-2.1-3.9-1.2c-0.7,0.4-1.1,1.2-1.3,2c-0.2,0.7-0.2,1.7,0.2,2.4
						c0.4,0.7,0.9,1.3,1.5,1.6c0.8,0.4,1.5,0.4,2.2,0C750,539,750.7,536.7,749.8,534.9z"/>
					<path id="XMLID_486_" class="st37" d="M729.2,530.9c-2.3,0-2.3,4.2,0,4.2C731.5,535.1,731.5,530.9,729.2,530.9z"/>
					<path id="XMLID_491_" class="st37" d="M793.7,521.5c-3.8,0-3.8,7.1,0,7.1C797.6,528.5,797.6,521.5,793.7,521.5z"/>
					<path id="XMLID_493_" class="st37" d="M790.7,538.5c-0.2-0.5-0.6-0.8-1-0.8s-0.8,0.3-0.9,0.7c-0.3,0.5-0.2,1.2,0.2,1.6
						c0.1,0.1,0.2,0.1,0.3,0.2c0.3,0.3,0.8,0.3,1.1,0c0.1-0.1,0.2-0.1,0.3-0.2C790.8,539.6,790.9,538.9,790.7,538.5z"/>
					<path id="XMLID_498_" class="st37" d="M782.3,551.5c-2.4,0-2.4,4.3,0,4.3S784.6,551.5,782.3,551.5z"/>
					<path id="XMLID_501_" class="st37" d="M775.4,535.4c-0.8,0-1.5,0.8-1.4,1.6c0,0.9,0.6,1.6,1.4,1.6s1.5-0.8,1.4-1.6
						C776.8,536.1,776.3,535.4,775.4,535.4z"/>
					<path id="XMLID_502_" class="st37" d="M827.3,549.9c-1.7,0-3.3,1.7-3.3,3.8c0.1,2,1.5,3.8,3.3,3.8c1.7,0,3.3-1.7,3.3-3.8
						C830.5,551.6,829.1,549.9,827.3,549.9z"/>
					<path id="XMLID_503_" class="st37" d="M854.1,532.9c-1.2,0-2.4,1.3-2.4,2.8c0.1,1.5,1,2.8,2.4,2.8c1.2,0,2.4-1.3,2.4-2.8
						C856.4,534.2,855.5,532.9,854.1,532.9z"/>
					<path id="XMLID_504_" class="st37" d="M862.6,548c-0.3-0.5-0.7-0.6-1.2-0.7c-0.9-0.2-1.8,0.5-1.8,1.6c0,1.2,0.9,1.8,1.8,1.6
						c0.4-0.1,0.8-0.2,1-0.5s0.4-0.7,0.4-1.1C862.9,548.6,862.8,548.3,862.6,548z"/>
					<path id="XMLID_505_" class="st37" d="M840.4,543.9c-0.8,0-1.5,0.8-1.5,1.7c0,0.9,0.7,1.7,1.5,1.7c0.8,0,1.5-0.8,1.5-1.7
						C841.9,544.7,841.3,543.9,840.4,543.9z"/>
					<path id="XMLID_506_" class="st37" d="M873.5,541.6c-3,0-3,5.4,0,5.4C876.5,547,876.5,541.6,873.5,541.6z"/>
					<path id="XMLID_507_" class="st37" d="M908.9,544.2c-1.3,0-2.5,1.3-2.4,2.8c0.1,1.5,1,2.8,2.4,2.8c1.3,0,2.5-1.3,2.4-2.8
						C911.3,545.5,910.2,544.2,908.9,544.2z"/>
					<path id="XMLID_508_" class="st37" d="M954.6,538.7c-2.5,0-2.5,4.5,0,4.5C957,543.3,957,538.7,954.6,538.7z"/>
					<path id="XMLID_509_" class="st37" d="M972.8,509.2c-2.7,0-2.7,4.9,0,4.9C975.5,514.1,975.5,509.2,972.8,509.2z"/>
					<path id="XMLID_510_" class="st37" d="M988.3,523.5c-0.4-0.9-1.5-1-2.1-0.3c-0.6,0.7-0.5,2,0.3,2.5c0.6,0.4,1.4,0.6,1.9,0
						C988.8,525.1,988.5,524.2,988.3,523.5z"/>
					<path id="XMLID_511_" class="st37" d="M985.4,541.6c-2.3,0-2.3,4.2,0,4.2S987.7,541.6,985.4,541.6z"/>
					<path id="XMLID_512_" class="st37" d="M975.6,529.9c-0.2,0-0.3,0-0.4,0c-0.8,0.1-1.5,0.8-1.5,1.8s0.7,1.7,1.5,1.8
						c0.2,0,0.3,0,0.4,0c0.8-0.1,1.5-0.7,1.5-1.8C977.1,530.6,976.5,530,975.6,529.9z"/>
					<path id="XMLID_513_" class="st37" d="M996.7,527.9c-1.9,0-1.9,3.4,0,3.4C998.6,531.4,998.6,527.9,996.7,527.9z"/>
					<path id="XMLID_514_" class="st37" d="M988.8,510.9c-1.5,0-1.5,2.8,0,2.8C990.3,513.8,990.3,510.9,988.8,510.9z"/>
					<path id="XMLID_515_" class="st37" d="M1024.5,547.1c-0.7-0.7-1.5-1.3-2.5-1.2c-0.9,0-1.9,0.4-2.5,1.2
						c-0.3,0.4-0.5,0.7-0.8,1.1l-0.3,1c-0.2,0.5-0.2,1.1-0.1,1.6c0.1,0.9,0.4,1.8,0.9,2.4c0.4,0.5,0.9,0.8,1.5,1.1
						c0.8,0.3,2.1,0.2,2.7-0.4c0.3-0.3,0.7-0.6,0.9-0.9c0.7-0.7,1-1.9,1-2.9C1025.6,549.1,1025.2,547.8,1024.5,547.1z"/>
					<path id="XMLID_516_" class="st37" d="M1058.3,543.2c-1.1,0-2.1,1.1-2.1,2.5c0.1,1.3,0.9,2.5,2.1,2.5c1.1,0,2.1-1.1,2.1-2.5
						C1060.4,544.3,1059.5,543.2,1058.3,543.2z"/>
					<path id="XMLID_517_" class="st37" d="M1070.7,521.9c-0.3-0.8-1.2-1.4-2-1.4c-0.7,0-1.3,0.3-1.7,0.9c-0.4,0.5-0.8,1.3-0.8,2
						c0,1.1,0.7,2.2,1.6,2.5c0.8,0.2,1.7-0.1,2.2-0.9c0,0,0.1,0,0.1-0.1C1071.1,524.2,1071.2,523,1070.7,521.9z"/>
					<path id="XMLID_518_" class="st37" d="M1073.7,532.6c-1.9,0-1.9,3.4,0,3.4C1075.6,536.1,1075.6,532.6,1073.7,532.6z"/>
					<path id="XMLID_519_" class="st37" d="M1085.1,542.4c-2.1,0-2.1,3.8,0,3.8S1087.2,542.4,1085.1,542.4z"/>
					<path id="XMLID_520_" class="st37" d="M1090.2,524.4c-2.1,0-2.1,3.9,0,3.9C1092.4,528.3,1092.4,524.4,1090.2,524.4z"/>
					<path id="XMLID_521_" class="st37" d="M1131.5,542c-1.4-0.9-3.3-0.7-4.4,0.7c-0.3,0.3-0.4,0.7-0.7,1c-0.7,1-0.7,3,0,4
						c0.2,0.3,0.4,0.7,0.7,1c1,1.2,2.7,1.5,3.9,0.9c1.3-0.6,2.3-2.2,2.2-3.8C1133.2,544.2,1132.6,542.8,1131.5,542z"/>
					<path id="XMLID_522_" class="st37" d="M1145.6,531.2c-2.7,0-2.7,4.9,0,4.9C1148.2,536.1,1148.2,531.2,1145.6,531.2z"/>
					<path id="XMLID_523_" class="st37" d="M1155.9,538.9c-2.2,0-2.2,4.1,0,4.1C1158.1,543.1,1158.1,538.9,1155.9,538.9z"/>
					<path id="XMLID_524_" class="st37" d="M1164.4,528.3c-1.5,0-1.5,2.8,0,2.8S1166,528.3,1164.4,528.3z"/>
				</g>
			</g>
			<linearGradient id="SVGID_3_" gradientUnits="userSpaceOnUse" x1="164.0792" y1="297.075" x2="480.6198" y2="297.075">
				<stop  offset="0" style="stop-color:#3EBC7D"/>
				<stop  offset="5.427804e-05" style="stop-color:#27B77D"/>
				<stop  offset="1.235792e-04" style="stop-color:#12B27D"/>
				<stop  offset="1.903328e-04" style="stop-color:#04AF7D"/>
				<stop  offset="2.511950e-04" style="stop-color:#00AE7D"/>
				<stop  offset="1" style="stop-color:#ADDC7C"/>
			</linearGradient>
			<rect x="164.1" y="-1.1" class="st39" width="316.5" height="596.4"/>
		</g>
		<path id="XMLID_16_" class="st40" d="M682.4,494.9c4.6,6.2,11.9,8.7,14,16.9c1.1,4.1,1.3,8.5,1.9,12.7c1.2-0.7,2.3-1.2,3.5-1.6
			c-0.4-2.6-0.8-5.2-1.2-8c-1-6.7-3.3-11.6-8.5-15.8c-6.8-5.5-10.6-11.2-12-19.5c0.1-1.4,0.3-2.8,0.3-4.3h-5.8
			c-0.1,0.1-0.1,0.3-0.2,0.5c-0.1-0.1-0.1-0.3-0.2-0.5H670c-0.6,8.5,0.4,16-2.4,24.4c-2.9,8.4-8.4,13.6-14,19.8
			c-1,1-1.8,2.2-2.7,3.4c1.6,1.7,3.1,3.6,4.6,5.3c2.1-3.3,5.2-5.8,7.9-8.5c-0.3,4.9-0.8,9.8-1.2,14.6c0,0.3,0,0.7-0.1,1
			c1.1,0.9,2,1.6,3.1,2.3c0-0.8,0-1.5,0.1-2.2c0.2-5.9,0.2-12,0.2-17.9c1.2-1.3,2.4-2.7,3.3-4.1c0.9-1.3,1.6-2.8,2.5-4.3
			c1,5.3,3.2,9.8,8.8,12c3.7,1.5,7.5,1.6,10.4,4.9c0.6,0.8,1.3,1.6,1.8,2.6l0,0c1.7-1.4,3.3-2.7,5.2-3.8c-1.6-3.1-3.5-5.9-6.7-7.8
			c-2.6-1.6-5.9-2-8.4-3.5c-3.8-2.4-3.9-7.1-4.1-11.4c-0.3-4.4,0-8.7,0.5-13C679.9,491.1,681,493.1,682.4,494.9z"/>
		<path id="XMLID_38_" class="st40" d="M592.2,488.3c4.2,4.2,10.9,6,12.7,11.6c1,2.8,1.2,5.8,1.8,8.7c1.1-0.5,2.1-0.8,3.2-1.1
			c-0.4-1.8-0.7-3.6-1.1-5.5c-0.9-4.6-3-8-7.7-10.9c-6.2-3.8-9.7-7.7-10.9-13.4c0.1-1,0.3-1.9,0.3-3h-5.3c-0.1,0.1-0.1,0.2-0.2,0.3
			c-0.1-0.1-0.1-0.2-0.2-0.3h-3.9c-0.6,5.8,0.4,11-2.2,16.8c-2.6,5.8-7.6,9.4-12.7,13.6c-0.9,0.7-1.7,1.5-2.4,2.3
			c1.5,1.2,2.8,2.5,4.2,3.7c2-2.2,11.3-9.1,12.2-10.1c0.8-0.9,1.5-1.9,2.2-3c0.9,3.7,2.9,6.7,8,8.2c3.3,1,6.8,1.1,9.5,3.4
			c0.6,0.6,1.2,1.1,1.7,1.8c1.6-1,3-1.8,4.7-2.6c-1.5-2.2-3.2-4.1-6.1-5.4c-2.3-1.1-5.4-1.4-7.6-2.4c-3.4-1.7-3.5-4.9-3.7-7.8
			c-0.3-3,0-6,0.5-9C589.8,485.6,590.9,487,592.2,488.3z"/>
	</g>
</g>
<linearGradient id="SVGID_4_" gradientUnits="userSpaceOnUse" x1="0" y1="297.65" x2="480.6198" y2="297.65">
	<stop  offset="0" style="stop-color:#3EBC7D"/>
	<stop  offset="5.427804e-05" style="stop-color:#27B77D"/>
	<stop  offset="1.235792e-04" style="stop-color:#12B27D"/>
	<stop  offset="1.903328e-04" style="stop-color:#04AF7D"/>
	<stop  offset="2.511950e-04" style="stop-color:#00AE7D"/>
	<stop  offset="0.1298" style="stop-color:#0FB27D"/>
	<stop  offset="0.3782" style="stop-color:#36BC7D"/>
	<stop  offset="0.7167" style="stop-color:#74CD7C"/>
	<stop  offset="1" style="stop-color:#ADDC7C"/>
</linearGradient>
<linearGradient id="SVGID_5_" gradientUnits="userSpaceOnUse" x1="-0.5" y1="297.65" x2="481.1198" y2="297.65">
	<stop  offset="0" style="stop-color:#3EBC7D"/>
	<stop  offset="5.427804e-05" style="stop-color:#27B77D"/>
	<stop  offset="1.235792e-04" style="stop-color:#12B27D"/>
	<stop  offset="1.903328e-04" style="stop-color:#04AF7D"/>
	<stop  offset="2.511950e-04" style="stop-color:#00AE7D"/>
	<stop  offset="0.1298" style="stop-color:#0FB27D"/>
	<stop  offset="0.3782" style="stop-color:#36BC7D"/>
	<stop  offset="0.7167" style="stop-color:#74CD7C"/>
	<stop  offset="1" style="stop-color:#ADDC7C"/>
</linearGradient>
<rect y="0.8" class="st41" width="480.6" height="593.7"/>
<path class="st37" d="M556.3,516.8"/>
</svg>
