<?xml version="1.0" encoding="utf-8"?>
<!-- Generator: Adobe Illustrator 24.0.0, SVG Export Plug-In . SVG Version: 6.00 Build 0)  -->
<svg version="1.1" id="Layer_1" xmlns="http://www.w3.org/2000/svg" xmlns:xlink="http://www.w3.org/1999/xlink" x="0px" y="0px"
	 viewBox="0 0 1200.6 599.1" style="enable-background:new 0 0 1200.6 599.1;" xml:space="preserve">
<style type="text/css">
	.st0{fill:url(#SVGID_1_);}
	.st1{fill:#FFF197;}
	.st2{fill:#0A3542;}
	.st3{fill:#B07E09;}
	.st4{fill:#F9DA61;}
	.st5{fill:#FFFFFF;}
	.st6{fill:#7CA588;}
	.st7{fill:#CF3423;}
</style>
<g>
	<linearGradient id="SVGID_1_" gradientUnits="userSpaceOnUse" x1="0" y1="299.55" x2="1200.5659" y2="299.55">
		<stop  offset="0" style="stop-color:#7CA588"/>
		<stop  offset="0.9992" style="stop-color:#94A588"/>
	</linearGradient>
	<rect class="st0" width="1200.6" height="599.1"/>
	<g>
		<path class="st1" d="M811.3,92.2c0,0-4.7,8.7-4.6,16c0.2,7.3-2.3,14.6-20.7,20.5c0,0-0.3,1.6,2.9,2.9c3.2,1.3,9.3,3.9,9.7,7.2
			c0.4,3.4-1.6,4.5-1.6,4.5l2,2.2c0,0-1.2,0.8-1.1,2c0,0,2,0.2,2.3,1.9c0.4,1.7-4.4,8.4-4.3,12.4c0,0,17.1-2.2,21.6,2.9
			c4.5,5.2,17.5,65.3,17.5,65.3l20-31.5L840.1,154c0,0,30.4-16.7,24.5-45.1S811.3,92.2,811.3,92.2z"/>
		<g>
			<path class="st2" d="M798.6,138.8c0.2,1.2-0.1,2.2-0.3,2.8c1.5-2,3.5-5.3,2.7-7.1c-1.3-2.7-9.5-1.3-15-5.8c0,0-0.3,1.6,2.9,2.9
				C792.2,133,798.2,135.5,798.6,138.8z"/>
			<g>
				<path class="st2" d="M871.2,125.7c-1.6-0.9-3.4-1.3-5.1-1.2c-0.1-3.3-0.3-7.1-0.9-11.2c-0.1-1.4-0.3-2.8-0.6-4.3
					c-5.8-28.4-53.3-16.8-53.3-16.8s-4.7,8.7-4.6,16c0.1,3.2-0.4,6.4-2.5,9.6c0.7,0.4,1.4,0.8,2.2,1.2c0-0.1,0-0.2,0.1-0.3
					c0.8-7.4,3.6-13.1,6.2-12.7c2.7,0.3,4.1,6.6,3.3,14c-0.1,0.5-0.1,1-0.2,1.5c2.8,2.1,4.7,5.7,4.1,9.1
					c-0.9,5.3-12.6,29.5-23.8,31.3c0,0,17.1-2.2,21.6,2.9s17.5,65.3,17.5,65.3l20-31.5l-15-44.5c2.5,0,8.4,0.9,14.1-1.7
					c1,1.4,2.3,2.6,3.7,3.3c6.3,3.4,14.3-0.5,18-8.8C879.5,138.6,877.4,129.1,871.2,125.7z"/>
				<path class="st2" d="M812.6,107c-2.5-0.3-5.1,5-5.9,12v0.1c0.5,0.2,1,0.3,1.5,0.4l0.9-5.3l0.3,3.2l5,1.3l-2.2,1.2l-0.8-1.2
					l-0.3,1.1c1.6,0.1,3.2,0.7,4.6,1.6c0.1-0.4,0.1-0.8,0.2-1.2C816.5,113.2,815.1,107.3,812.6,107z"/>
			</g>
		</g>
		<g>
			<path class="st3" d="M826,142.8c0,0,0.1,0.1,0.2,0.2c0.1,0,0.1-0.1,0.1-0.1C826.1,143,826,142.9,826,142.8z"/>
			<path class="st3" d="M828.9,129.8c0,0,8.8-3.6,8,1.5c-0.4,2.3-1.5,5.6-3.1,8.2c2.8,1.5,5.6,2.4,6.8,0.9c2.8-3.4,2-10.1,2-10.1
				s3.4,6,7.8,4c4.5-1.9,5.6-19.6,5.6-19.6l-36.1-9.7C817.9,115.7,816.4,133.7,828.9,129.8z"/>
		</g>
		<path class="st4" d="M847.2,65.5c-9.6-2.6-19.3-0.8-27.3,4.2l2,4.8c-6.9,4.4-12.4,11.7-14.9,20.7l-11.5-3.1l-1,4.6l80.3,21.2
			l1-4.6h-0.1C879,91.7,866.7,70.6,847.2,65.5z"/>
		<path class="st2" d="M792,320.1l-6.7-6.2l-55.4-7.9l-21.3-23.6c0,0-22.3-4.7-23,15.2c0,0,2.1,0.9,3.5-1.1c1.4-2,2.4-5.1,2.4-5.1
			s-1,4.9,1.8,7.9c0,0-5.2,2.6-3.1,4.7c2,2.1,3.9-0.9,3.9-0.9s27.5,11,32.3,10.3l69.6,27.3L792,320.1z"/>
		<polygon class="st2" points="793.5,376.6 759.1,350.5 759.1,309.1 794.9,312.9 		"/>
		<path class="st4" d="M856.7,180.3l-70.7-1.8l13.1,43.3l-17.7,24.7l18.2,346h41.7l13.1-123.3l57.1,123.3h45.1l-66.8-241.6
			c0,0,19.4-3.8,25.1-25.3C920.6,304,856.7,180.3,856.7,180.3z"/>
		<g>
			<path class="st2" d="M914.9,317.7c-4.9-34.3-58.2-137.4-58.2-137.4l-42.3-1.1l6.5,31.7c0,0,23.1-8.2,28.1-3.7
				c5,4.4-28.4,4.4-38.1,16.3v80.7l75.5,3.1L914.9,317.7z"/>
			<polygon class="st2" points="841.3,592.5 854.4,469.1 854.4,469.1 854.4,469.1 854.4,469.1 854.4,469.1 917.6,511.9 876.5,500.7 
				898.6,546.3 917.1,550.2 929.3,592.5 956.6,592.5 889.8,350.8 889.8,350.8 865.3,350.4 864,334.6 801.3,338.4 821.4,401.3 
				803.6,415.7 836.4,461.8 818.4,539.7 828.4,556.9 816.4,592.5 			"/>
		</g>
		<polygon class="st5" points="829.2,214.7 896,249.1 848.1,363.1 781.4,328.6 		"/>
		<polygon class="st6" points="851,372.9 784.4,337.9 832.2,223.9 899,258.4 		"/>
		<path class="st2" d="M796.5,309.2l-12,28.7l65.6,29.5L896.2,265C870.3,286.8,834.4,309.3,796.5,309.2z"/>
		<path class="st2" d="M886.3,307.3c0,0-11.5,45.9-21.1,43.1s10.5-46.1,10.5-46.1L886.3,307.3z"/>
		<path class="st1" d="M886.3,307.3l-39.1-15l-15-13.3c0,0-8-6.4-18.5-2.5s-4,5.7-4,5.7s-6.8,3.3-5.9,5.7c0.9,2.4,8.2-0.8,8.2-0.8
			s-4.3,1.9-2.5,4.2c1.8,2.3,8.8,0,8.8,0s-2.9,1.1-1.2,2.4c1.8,1.4,7,0.4,7,0.4s15.4,6.8,20.2,5.2l38.4,21L886.3,307.3z"/>
		<g>
			<polygon class="st5" points="698.1,289.5 707.1,263.6 704.3,262.5 694.3,291.8 			"/>
			<polygon class="st5" points="692.2,298 689.2,306.9 688.4,313.4 691.7,307.9 695,298.5 			"/>
		</g>
		<path class="st7" d="M797,143.3l2,2.2c0,0-1.4,0.8-1.1,2l8.9-2.1L797,143.3z"/>
		<path class="st2" d="M848.7,65.9l-1.9,4.9c0,0,13.4,17.9,0,35.9l-25.4-7.9l-1.3,4.8l0,0l54.6,14.5l1-4.6h-0.1
			C878.9,92.3,867.3,71.8,848.7,65.9z"/>
		<path class="st2" d="M832.2,279c0,0-3.9-3.1-9.7-3.7c-0.5,1.8-1.5,3.9-3.3,4.5c0,0,2,2.8,0,4.7c0,0,3.9-1.4,5,0.8
			c1.1,2.2,0,3.5,0,3.5s3.9-1.3,5.3,1.2s0.7,3.6,0.7,3.6l16.4,1.8l32,15.9l-1.7,5.6l5.9,3.2l3.7-13l-39.1-15L832.2,279z"/>
		<path class="st2" d="M809.7,132.7c2.6,0.3,5.2-4.9,6.1-11.9l-0.2-0.1c-0.9,6.7-3.4,11.7-5.8,11.4c-2.5-0.3-3.9-6.2-3.1-13.2
			c0-0.1,0-0.2,0.1-0.2l-0.4-0.1C805.6,126.1,807.1,132.3,809.7,132.7z"/>
	</g>
</g>
</svg>
