<?xml version="1.0" encoding="utf-8"?>
<!-- Generator: Adobe Illustrator 24.0.0, SVG Export Plug-In . SVG Version: 6.00 Build 0)  -->
<svg version="1.1" id="layer_1" xmlns="http://www.w3.org/2000/svg" xmlns:xlink="http://www.w3.org/1999/xlink" x="0px" y="0px"
	 viewBox="0 0 1198.5 601.2" style="enable-background:new 0 0 1198.5 601.2;" xml:space="preserve">
<style type="text/css">
	.st0{fill:url(#SVGID_1_);}
	.st1{display:none;fill:#E1FFFD;}
	.st2{fill:#FC9206;}
	.st3{fill:url(#SVGID_2_);}
	.st4{fill:url(#SVGID_3_);}
	.st5{fill:url(#SVGID_4_);}
	.st6{fill:url(#SVGID_5_);}
	.st7{fill:#00387D;}
	.st8{fill:#04429B;}
	.st9{fill:#F7F1DA;}
	.st10{fill:url(#SVGID_6_);}
	.st11{fill:#EDBB79;}
	.st12{fill:#002C74;}
	.st13{fill:url(#SVGID_7_);}
	.st14{fill:url(#SVGID_8_);}
	.st15{fill:url(#SVGID_9_);}
	.st16{fill:url(#SVGID_10_);}
	.st17{fill:url(#SVGID_11_);}
	.st18{fill:#F7931E;}
	.st19{fill:#004F95;}
	.st20{fill:#D58E4F;}
	.st21{fill:url(#SVGID_12_);}
	.st22{fill:url(#SVGID_13_);}
	.st23{fill:url(#SVGID_14_);}
	.st24{fill:url(#SVGID_15_);}
	.st25{fill:#A86635;}
	.st26{fill:url(#SVGID_16_);}
</style>
<g>
	<linearGradient id="SVGID_1_" gradientUnits="userSpaceOnUse" x1="479.3144" y1="300.6052" x2="1198.5" y2="300.6052">
		<stop  offset="0" style="stop-color:#00A4F7"/>
		<stop  offset="1" style="stop-color:#005EF4"/>
	</linearGradient>
	<rect x="479.3" y="0" class="st0" width="719.2" height="601.2"/>
	<rect x="479.3" y="0" class="st1" width="719.2" height="596.1"/>
	<g>
		<path class="st2" d="M1044.1,144.2c-5.7,0.9-12.9,13.3-12.9,13.3s18.9,16.4,75.6,24C1102.4,143.2,1049.8,143.3,1044.1,144.2z"/>
		
			<linearGradient id="SVGID_2_" gradientUnits="userSpaceOnUse" x1="1010.8309" y1="-418.4699" x2="487.7537" y2="-632.0341" gradientTransform="matrix(1 0 0 -1 0 -197.5792)">
			<stop  offset="0" style="stop-color:#00A4F7"/>
			<stop  offset="1" style="stop-color:#005EF4"/>
		</linearGradient>
		<path class="st3" d="M1008.1,218.3c-112.6,18.1-97-125.5-316.3-103.2s-254,232.9-68.5,321.3c87.1,41.5,379.6,76.3,501.5-21.7
			C1246.6,316.7,1120.6,200.3,1008.1,218.3z"/>
		
			<linearGradient id="SVGID_3_" gradientUnits="userSpaceOnUse" x1="909.9365" y1="-660.7398" x2="808.3965" y2="-460.0032" gradientTransform="matrix(1 0 0 -1 0 -197.5792)">
			<stop  offset="0" style="stop-color:#00A4F7"/>
			<stop  offset="1" style="stop-color:#005EF4"/>
		</linearGradient>
		<path class="st4" d="M1174.2,334.5h-151.9c-0.1,0-0.1,0-0.1,0v-92.2c0,0,0,0-0.1,0H851.7c-0.1,0-0.1,0-0.1,0v-7.7
			c0-4.3-4.2-7.7-9.3-7.3c-4.4,0.3-7.8,3.4-7.8,7.1v7.9c0,0,0,0-0.1,0H802c-0.1,0-0.1,0-0.1,0v47c0,0,0,0-0.1,0h-298
			c-0.1,0-0.1,0-0.1,0c5.2,55.4,44.2,111.3,119.5,147.1c33.7,16.1,98,31.1,171.4,37.8l0,0h7.2h60.2h87.8l0,0
			c68.5-7.2,132.1-25.2,174.9-59.5c32.3-26,47.2-53.3,49.5-79l0,0L1174.2,334.5C1174.3,334.5,1174.3,334.5,1174.2,334.5z"/>
		
			<linearGradient id="SVGID_4_" gradientUnits="userSpaceOnUse" x1="980.065" y1="-442.5864" x2="844.5838" y2="-648.3171" gradientTransform="matrix(1 0 0 -1 0 -197.5792)">
			<stop  offset="0" style="stop-color:#00A4F7"/>
			<stop  offset="1" style="stop-color:#005EF4"/>
		</linearGradient>
		<path class="st5" d="M947.7,350.5H844.5v81.7H614.6c2.8,1.4,5.7,2.9,8.7,4.3c81.5,38.8,342.5,71.7,475.7-4.3H947.7V350.5z"/>
		
			<linearGradient id="SVGID_5_" gradientUnits="userSpaceOnUse" x1="668.8585" y1="-465.807" x2="627.0762" y2="-399.8839" gradientTransform="matrix(1 0 0 -1 0 -197.5792)">
			<stop  offset="0" style="stop-color:#00A4F7"/>
			<stop  offset="1" style="stop-color:#005EF4"/>
		</linearGradient>
		<rect x="595.5" y="178.1" class="st6" width="68.5" height="56.8"/>
		<path class="st7" d="M779.4,304.7h-0.1c-3.7,0-6.7,2.5-6.7,5.5v1.4c0,3.1,3,5.5,6.7,5.5h0.1c3.7,0,6.7-2.5,6.7-5.5v-1.4
			C786.1,307.2,783.1,304.7,779.4,304.7z"/>
		<path class="st7" d="M760.3,294.4h-0.1c-3.7,0-6.7,2.5-6.7,5.5v10c0,3.1,3,5.5,6.7,5.5h0.1c3.7,0,6.7-2.5,6.7-5.5v-10
			C766.9,296.9,764,294.4,760.3,294.4z"/>
		<rect x="741.1" y="235.1" class="st8" width="8.2" height="84.3"/>
		<rect x="628.8" y="235.1" class="st8" width="8.2" height="84.3"/>
		<path class="st9" d="M859.8,297.4c-1.5-0.9-16.1,11.6-26.5,27.1l47.2,31.4c0,0,21.8,24.9,26.5,23.2c4.7-1.7,10.4-12.9,9.9-14
			s7.8-23.8,8.3-25.1C925.6,338.7,892.9,325.8,859.8,297.4z"/>
		
			<linearGradient id="SVGID_6_" gradientUnits="userSpaceOnUse" x1="1052.1965" y1="-594.5194" x2="1059.9528" y2="-489.3777" gradientTransform="matrix(1 0 0 -1 0 -197.5792)">
			<stop  offset="0" style="stop-color:#1D96E9"/>
			<stop  offset="1" style="stop-color:#0071F5"/>
		</linearGradient>
		<path class="st10" d="M1115.4,309.5c-1.5-3.4-17.6-20.2-19.2-21.5c-1.5-1.3-8.3-5.6-15.1-8.2c-6.7-2.6-44.2,3.3-44.2,3.3
			l-24.3,19.1c0,0-9.3,10.3-12.9,23.6s16.6,71.8,16.6,71.8s30.1,21.5,37.9,16.4c7.8-5.2,50.3-50.7,50.3-50.7s12.9-35.7,10.9-43
			C1115.4,320.2,1117,312.9,1115.4,309.5z"/>
		<path class="st11" d="M1080.1,207.3c-9.3-13-25.4-17.3-25.4-17.3l-49.8,3c0,0-2.6,14.2-4.2,16.8c-1.6,2.6-7.8,9.5-9.9,12.5
			c-2.1,3,7.2,5.2,7.2,5.2s2.6,8.2,9.9,18.1c7.2,9.9,20.8,11.6,20.8,11.6s1.5,8.6,0,21.1s51.3-2.1,51.3-2.1s-2.6-16.8-3.6-28.4
			C1075.5,236,1089.5,220.3,1080.1,207.3z"/>
		<path class="st12" d="M1094,222.3c-11.7-24.6-37.8-17.7-37.8-17.7s-3.1,18.1,0,22.8s3.1-7.3,8.3-11.6c15.1-6,16.6,15.5,0,21.5
			c-6.2,10.7-9.9,13.8-9.9,13.8c13.5,1.3,17.1,0,17.1,0c-1,3-6.2,4.7-6.2,4.7s22.8,7.3,25.4-13.3c2.1,4.3,7.2,3,7.2,3
			S1092.9,236.9,1094,222.3z"/>
		
			<linearGradient id="SVGID_7_" gradientUnits="userSpaceOnUse" x1="971.7407" y1="-386.7204" x2="1106.825" y2="-386.7204" gradientTransform="matrix(1 0 0 -1 0 -197.5792)">
			<stop  offset="0" style="stop-color:#FED302"/>
			<stop  offset="1" style="stop-color:#FC9206"/>
		</linearGradient>
		<path class="st13" d="M1106.4,178.7c-4-10.5-14.8-17.5-29.9-23.1c-38.7-14.3-73.1,7.7-79.3,28.8c-18.1-0.4-30.6,3.9-23.3,5.6
			c0,0,101.7,22.4,109.9,24.5c8.3,2.1,11.4,10.3,13.5,12.5c2.1,2.2,1-5.6,0-9.5C1104.5,205.9,1108.1,193,1106.4,178.7z"/>
		
			<linearGradient id="SVGID_8_" gradientUnits="userSpaceOnUse" x1="1043.7418" y1="-480.4479" x2="1112.2379" y2="-469.2023" gradientTransform="matrix(1 0 0 -1 0 -197.5792)">
			<stop  offset="0" style="stop-color:#1D96E9"/>
			<stop  offset="1" style="stop-color:#0071F5"/>
		</linearGradient>
		<path class="st14" d="M1020,283.7c-3.6,7.7-7.2,18.5-7.2,18.5s35.2-11.6,68.5-22.4c0-8.6-2.9-16.8-2.9-16.8
			C1059.9,268.2,1021.8,279.7,1020,283.7z"/>
		<path class="st11" d="M942.7,305.2c-5.7,0.9-13.5,4.3-28,13.3c-14.5,9-19.2,14.6-14.5,12.9c4.7-1.7,14.5-4.7,14.5-4.7
			s5.2,3.4,10.9,5.2c5.7,1.7,7.2-1.3,7.2-1.3s8.3,2.1,24.9-1.7c13.5,10.3,43,27.1,43,27.1s9.9-5.2,6.7-25.4
			C984.2,324.1,948.4,304.3,942.7,305.2z"/>
		
			<linearGradient id="SVGID_9_" gradientUnits="userSpaceOnUse" x1="868.2488" y1="-494.442" x2="886.691" y2="-546.4755" gradientTransform="matrix(1 0 0 -1 0 -197.5792)">
			<stop  offset="0" style="stop-color:#00A4F7"/>
			<stop  offset="1" style="stop-color:#005EF4"/>
		</linearGradient>
		<path class="st15" d="M885.8,328.2c-0.8,0-5.7,1.6-5.7,1.6s3,6,4.2,8.2c-1.1,0.3-7.6-0.9-7.6-0.9l-0.8,4.7c0,0,16,1.6,16.7,1.3
			C893.4,342.7,886.5,328.2,885.8,328.2z"/>
		
			<linearGradient id="SVGID_10_" gradientUnits="userSpaceOnUse" x1="969.9017" y1="-587.8311" x2="1117.5349" y2="-587.8311" gradientTransform="matrix(1 0 0 -1 0 -197.5792)">
			<stop  offset="0" style="stop-color:#0046E6"/>
			<stop  offset="1" style="stop-color:#002C74"/>
		</linearGradient>
		<path class="st16" d="M1115.4,320.2c-0.5,2.6-1,10.3-8.3,24.1s-25.9,42.5-25.9,42.5l-19.7,15c0,0-16.6,20.2-29.5-1.3
			c-12.9-21.5-20.8-58.5-19.2-59.7c37.9-43,55.5-43,55.5-43s-13.5-1.3-17.6,0c-4.2,1.3-21.3,12.5-39.4,32.7
			c-4.7,0.9-11.4-4.7-11.4-4.7c-5.2,18.1-11.4,52.9-11.9,60.6c-0.5,7.7-1,42.5-1,42.5s-7.5,18.3-16.8,45.8
			c25.9,3,76.7,19.8,136.9-3.9c7.8-18.5-3.4-60.4-3.4-60.4s7.2-15,9.3-25.8c2.1-10.7,1-34.8,1-34.8s3.1-16.8,3.6-19.3
			C1118,327.9,1115.9,317.6,1115.4,320.2z"/>
		<path class="st11" d="M1029.3,389.8c-25.4,1.7-42.5,6-67.9,0c-25.4-6-34.2-15-38.4-17.2c-4.2-2.1-5.7-8.6-12.9-16.8
			c-3-3.4-7.2,1.7-5.2,10.3c1.1,4.6-0.5,4.7-5.2,1.7s-23.3-14.6-23.3-14.6c-8.8-3,5.7,12.5,11.9,20.7c-5.2,1.3-2.1,9-2.1,9
			s-2.6,0.4,1,5.6c3.6,5.2,8.8,8.2,34.2,12c25.4,3.9,20.2,6,57.6,15.9c37.3,9.9,63.8,7.7,73.1,6.9s14-7.7,14-7.7
			S1053.7,388.5,1029.3,389.8z"/>
		
			<linearGradient id="SVGID_11_" gradientUnits="userSpaceOnUse" x1="1037.6095" y1="-589.4247" x2="1117.6171" y2="-481.8589" gradientTransform="matrix(1 0 0 -1 0 -197.5792)">
			<stop  offset="0" style="stop-color:#0046E6"/>
			<stop  offset="1" style="stop-color:#002C74"/>
		</linearGradient>
		<path class="st17" d="M1104,297.4c-43.6-12.9-60.7,18.1-60.7,18.1c-8.3,28.4-11.9,63.6-11.9,63.6s-2.3,3.2-4.9,10.9
			c21.5,8.8,38.1,33.3,39.7,32c1.5-1.3,11.4-14.6,12.9-21.1c2.6-4.3,23.3-53.3,27-67.5C1109.7,319.3,1111.3,299.6,1104,297.4z"/>
		<path class="st7" d="M814.1,303.5c-2.1,1.7-19.7,22.8-20.2,23.2l1.5,21.5c0,0,21.3-39.1,22.3-41.3
			C818.8,304.7,816.2,301.7,814.1,303.5z"/>
		<path class="st18" d="M816.2,289.2c-12.4,13.8-1.5,34.4,11.9,23.2C841.6,301.3,832.1,271.7,816.2,289.2z"/>
		<path class="st19" d="M782.6,311.6H599.3c-9.1,0-16.5,6.1-16.5,13.7v55.2c0,7.5,7.4,13.7,16.5,13.7h183.2
			c9.1,0,16.5-6.1,16.5-13.7v-55.2C799.1,317.7,791.7,311.6,782.6,311.6z"/>
		<rect x="635.2" y="144.4" class="st7" width="109.9" height="91.1"/>
		<path class="st7" d="M717.6,333.9h-45.9c-8.6,0-15.7,5.8-15.7,13v19.2c0,7.2,7,13,15.7,13h45.9c8.6,0,15.7-5.8,15.7-13v-19.2
			C733.2,339.8,726.2,333.9,717.6,333.9z"/>
		<ellipse class="st18" cx="618.4" cy="364.2" rx="9.6" ry="8"/>
		<path class="st7" d="M623.3,436.5c28.3,13.5,78.2,26.2,136.9,34v-76.3H623.3V436.5z"/>
		<path class="st20" d="M1069.3,218.3c-4.7-0.4-7.2,6.4-5.2,5.2c0,0,3.6-3.9,8-1.9C1073.4,222.2,1073.9,218.8,1069.3,218.3z"/>
		<g>
			<polygon class="st18" points="683.5,191.9 672.5,182.4 660.5,191.8 683.9,212.1 721.3,177.1 708.9,168 			"/>
		</g>
		<path class="st19" d="M505.2,253.8h278.1v-18.9H509.9C507.8,241.1,506.3,247.4,505.2,253.8z"/>
		<g>
			
				<linearGradient id="SVGID_12_" gradientUnits="userSpaceOnUse" x1="693.7078" y1="-659.2064" x2="703.3992" y2="-531.2791" gradientTransform="matrix(1 0 0 -1 0 -197.5792)">
				<stop  offset="0" style="stop-color:#00A4F7"/>
				<stop  offset="1" style="stop-color:#005EF4"/>
			</linearGradient>
			<rect x="697.8" y="333.9" class="st21" width="7.7" height="45.1"/>
			
				<linearGradient id="SVGID_13_" gradientUnits="userSpaceOnUse" x1="678.881" y1="-658.2743" x2="688.5724" y2="-530.347" gradientTransform="matrix(1 0 0 -1 0 -197.5792)">
				<stop  offset="0" style="stop-color:#00A4F7"/>
				<stop  offset="1" style="stop-color:#005EF4"/>
			</linearGradient>
			<rect x="682.9" y="333.9" class="st22" width="7.7" height="45.1"/>
			
				<linearGradient id="SVGID_14_" gradientUnits="userSpaceOnUse" x1="663.6706" y1="-657.2153" x2="673.3541" y2="-529.3921" gradientTransform="matrix(1 0 0 -1 0 -197.5792)">
				<stop  offset="0" style="stop-color:#00A4F7"/>
				<stop  offset="1" style="stop-color:#005EF4"/>
			</linearGradient>
			<path class="st23" d="M667.6,334.4v44.2c1.3,0.3,2.7,0.5,4.2,0.5h3.5v-45.1h-3.5C670.3,333.9,668.9,334.1,667.6,334.4z"/>
			
				<linearGradient id="SVGID_15_" gradientUnits="userSpaceOnUse" x1="708.1724" y1="-660.0886" x2="717.8607" y2="-532.2026" gradientTransform="matrix(1 0 0 -1 0 -197.5792)">
				<stop  offset="0" style="stop-color:#00A4F7"/>
				<stop  offset="1" style="stop-color:#005EF4"/>
			</linearGradient>
			<path class="st24" d="M712.4,333.9v45.1h5c0.9,0,1.8-0.1,2.6-0.2v-44.8c-0.9-0.1-1.7-0.2-2.6-0.2L712.4,333.9L712.4,333.9z"/>
		</g>
		<path class="st25" d="M1062.3,227.2c-2.1,3.9,3.1,3.4,4.7,0C1068.5,223.7,1063.6,224.6,1062.3,227.2z"/>
		<path class="st18" d="M757.1,334.2H757c-2.7,0-4.9,1.8-4.9,4V374c0,2.2,2.2,4,4.9,4h0.1c2.7,0,4.9-1.8,4.9-4v-35.8
			C762,336,759.8,334.2,757.1,334.2z"/>
		<path class="st9" d="M752.1,373.9c0,2.3,2.2,4.1,4.9,4.1c2.7,0,4.9-1.8,4.9-4.1v-19.1h-9.9V373.9L752.1,373.9z"/>
	</g>
</g>
<linearGradient id="SVGID_16_" gradientUnits="userSpaceOnUse" x1="0" y1="300.6052" x2="479.3144" y2="300.6052">
	<stop  offset="1.806087e-03" style="stop-color:#055EF4"/>
	<stop  offset="1" style="stop-color:#03A3F7"/>
</linearGradient>
<rect y="0" class="st26" width="479.3" height="601.2"/>
</svg>
