<?xml version="1.0" encoding="utf-8"?>
<!-- Generator: Adobe Illustrator 24.0.0, SVG Export Plug-In . SVG Version: 6.00 Build 0)  -->
<svg version="1.1" id="Layer_1" xmlns="http://www.w3.org/2000/svg" xmlns:xlink="http://www.w3.org/1999/xlink" x="0px" y="0px"
	 viewBox="0 0 1200.95 599.12" style="enable-background:new 0 0 1200.95 599.12;" xml:space="preserve">
<style type="text/css">
	.st0{fill:#3FC2CD;}
	.st1{fill:#FFD388;}
	.st2{fill:#FFD8A1;}
	.st3{fill:#945C34;}
	.st4{fill:#E38E55;}
	.st5{fill:#FCBE7D;}
	.st6{fill:url(#SVGID_1_);}
	.st7{fill:url(#SVGID_2_);}
	.st8{fill:url(#SVGID_3_);}
	.st9{fill:#FFFFFF;}
	.st10{fill:url(#SVGID_4_);}
	.st11{fill:#00395D;}
	.st12{opacity:0.25;fill:#FFFFFF;}
	.st13{fill:#46AACF;}
	.st14{fill:#6BC4E8;}
	.st15{fill:url(#SVGID_5_);}
	.st16{fill:url(#SVGID_6_);}
	.st17{opacity:0.96;fill:#FFFFFF;}
	.st18{fill:url(#SVGID_7_);}
	.st19{fill:url(#SVGID_8_);}
	.st20{fill:url(#SVGID_9_);}
	.st21{opacity:0.7;fill:#FFFFFF;}
	.st22{fill:#595A5A;}
	.st23{fill:#E5ECEF;}
	.st24{fill:#505252;}
	.st25{fill:#ACB3B7;}
	.st26{fill:#419FC1;}
	.st27{fill:url(#SVGID_10_);}
	.st28{fill:url(#SVGID_11_);}
	.st29{fill:#009CC4;}
	.st30{fill:#FED09E;}
	.st31{fill:#3FC2CD;stroke:url(#SVGID_12_);stroke-miterlimit:10;}
</style>
<rect x="481.39" class="st0" width="720.14" height="599.92"/>
<path class="st1" d="M1138.51,455.74l-17.44-110.6c-72.28-23.3-134.76-44.42-137.61-45.38c-6.08-2.07-13.45-6.93-13.45-6.93
	c-17.86-22.19-76.42-52-85.56-57.08c-9.14-5.08-58.55-46.67-72.57-53.7c-14.02-7.03-28.52,4.68-13.16,17
	c15.36,12.32,50.39,46.74,50.39,46.74s-49.01-29.32-57.95-33.96c-8.95-4.64-30.36-19.29-39.7-7.94
	c-9.34,11.35,37.22,33.5,54.05,45.6c16.84,12.1,17.47,21.32,17.47,21.32c-23.06-6.68-102.1-46.58-111.1-32.37
	c-11.17,17.62,63.8,39.71,80.1,48c16.31,8.3,15.28,15.06,15.28,15.06c-19.04-1.49-99.21-29.52-101.82-13.33
	c-2.61,16.18,48.87,27.38,69.26,31.92c20.39,4.54,81.9,21.53,18.8,30.82c-63.1,9.29-43.2,34.81-38.97,33.98
	c4.23-0.82,35.79-8.7,45.45-10.22c9.66-1.53,85.99,0.91,101.88-6.03c15.88-6.94,41.2,4.15,41.2,4.15
	C1012.89,406.05,1082.05,432.76,1138.51,455.74z"/>
<path class="st2" d="M888.43,338.73c1.24-3.5,8.67-30.43,11.86-38.24c3.19-7.81,43.42-62.35,44.08-77.38
	c0.65-15.03,20.72-30.39,20.72-30.39c47.01-23.6,91.06-48.29,130.01-71.52l-5.81-111.94c-79.67,54.82-172.88,120.46-176.1,122.6
	c-5.15,3.43-13.69,4.1-13.69,4.1c-31.8,2.09-91.6,30.16-101.38,34.33c-9.78,4.17-77.26,19.74-91.46,26.51
	c-14.2,6.77-9.23,23.14,11.11,18c20.35-5.14,73.3-13.75,73.3-13.75s-54.57,21.33-63.8,25.57c-9.23,4.24-34.97,12.66-27.83,25.08
	c7.14,12.42,53.08-10.65,73.93-16.98c20.85-6.33,30.71-2.24,30.71-2.24c-18.31,13.54-98.67,51.59-88.4,65.17
	c12.73,16.85,72.64-27.01,89.28-34.82c16.65-7.82,23.15-3.73,23.15-3.73c-10.95,13.17-79.57,57.9-64.09,67.79
	c15.47,9.89,52.5-22.19,67.27-34.84c14.78-12.65,62.75-49.19,41.21,1.48C850.94,344.17,887.2,342.23,888.43,338.73z"/>
<path class="st3" d="M929.91,223.62c-3.71-1.88-32.85-14.64-41.04-19.19c-8.19-4.54-60.89-50.83-78.02-55.12
	c-17.13-4.29-29.79-24.41-29.79-24.41C767.61,86.42,751.26,37.57,735.91,0H613.41c38.48,69.36,83.2,149.16,84.59,151.8
	c2.65,5.03,1.29,12.13,1.29,12.13c-5.55,26.34,11.77,81.89,14.12,90.86c2.35,8.98,3.37,67.64,7.61,80.86
	c4.24,13.22,24.32,13.28,23.49-4.52c-0.82-17.8,2.53-62.93,2.53-62.93s10.88,49.63,13.46,58.18c2.57,8.55,5.81,31.55,21.89,28.86
	c16.08-2.69,1.03-45.75-1.04-64.25c-2.07-18.5,5.11-25.48,5.11-25.48c11,18.25,34.67,92.98,52.87,88.05
	c22.57-6.12-12.9-65.71-17.72-81.17c-4.83-15.47,1.51-19.72,1.51-19.72c12.42,12.18,46.71,79.06,61.97,68.97
	c15.26-10.09-12.39-48.16-23.25-63.31c-10.86-15.16-40.9-63.23,12.01-33.08C926.78,255.41,933.62,225.5,929.91,223.62z"/>
<path class="st4" d="M798.02,243.23c-19.59-2.88-21.64-9.78-21.64-9.78c19.18-4.6,109.73-2.83,104.97-19.38
	c-4.76-16.55-59.84-11.09-81.7-9.02c-21.86,2.06-89.3,5.09-32.16-23.98c57.14-29.06,26.3-47.54,22.56-45.39
	c-3.74,2.15-30.86,19.81-39.57,24.37c-8.7,4.56-83.99,26.42-96.3,38.21c-12.31,11.79-40.58,13.13-40.58,13.13
	c-45.75-5.59-90.46-9.53-132.22-12.28v91.36c68.15-0.53,123.65-1.19,126.46-1.15c6.85,0.08,14.28,4.25,14.28,4.25
	c27.35,15.89,97.7,26.26,108.87,28.29c11.17,2.03,77.94,26.76,94.73,29.13c16.79,2.37,25.6-13.61,5.13-20.7
	c-20.48-7.1-70.04-29.41-70.04-29.41s60.84,12.92,71.63,14.59c10.79,1.67,38.19,9.1,42.16-4.89c3.97-13.99-51.27-20.73-73.08-27.14
	c-21.82-6.41-26.58-15.16-26.58-15.16c25.42-0.83,120.22,12.84,122.57-3.83C900.42,243.77,817.61,246.11,798.02,243.23z"/>
<path class="st5" d="M498.38,601.12c72.52-67.73,208.05-194.32,209.83-196.08c4.65-4.61,13.58-6.82,13.58-6.82
	c33.35-7.77,90.21-48.6,99.61-54.81c9.4-6.22,77.46-34.8,90.94-44.61c13.48-9.81,4.21-26.73-16.19-17.63
	c-20.42,9.1-74.7,27.61-74.7,27.61s52.92-32.61,61.72-38.81c8.8-6.21,34.16-19.79,23.54-32.05c-10.61-12.26-53.93,20.75-74.59,31.23
	c-20.66,10.48-32.15,7.75-32.15,7.75c16.21-17.88,92.54-73.1,78.3-86.08c-17.64-16.1-70.78,41.9-86.61,53.26
	c-15.83,11.37-23.74,8.05-23.74,8.05c8.46-16.2,70.67-76.65,51.79-84.72c-18.87-8.07-50.51,33.18-63.17,49.47
	c-12.66,16.3-54.87,64.28-44.23,5.52c10.65-58.76-27.49-50.38-27.95-46.37c-0.47,4.01-1.85,34.55-3.35,43.59
	c-1.5,9.04-31.1,75.24-28.16,91.68c2.95,16.44-14.68,36.6-14.68,36.6c-55.49,42.26-105.2,76.39-156.81,119.62v133.61H498.38z"/>
<linearGradient id="SVGID_1_" gradientUnits="userSpaceOnUse" x1="1020.6226" y1="55.9065" x2="980.4365" y2="106.8402" gradientTransform="matrix(-0.0943 0.9955 -0.9955 -0.0943 811.0157 -632.3005)">
	<stop  offset="0" style="stop-color:#FFFFFF"/>
	<stop  offset="0.4845" style="stop-color:#FDFEFE"/>
	<stop  offset="0.6591" style="stop-color:#F6F9FA"/>
	<stop  offset="0.7835" style="stop-color:#EBF1F3"/>
	<stop  offset="0.884" style="stop-color:#DAE5EA"/>
	<stop  offset="0.9692" style="stop-color:#C4D6DE"/>
	<stop  offset="1" style="stop-color:#BACFD8"/>
</linearGradient>
<path class="st6" d="M605.25,352.28c-2.38,1.96-1.85,5.66,1.18,8.26l80.95,69.58c3.03,2.61,7.42,3.13,9.79,1.17l23.48-19.33
	c2.38-1.96,1.85-5.66-1.18-8.27l-80.95-69.58c-3.03-2.61-7.42-3.13-9.8-1.17L605.25,352.28z"/>
<linearGradient id="SVGID_2_" gradientUnits="userSpaceOnUse" x1="1153.7646" y1="1546.3142" x2="1247.02" y2="1546.3142" gradientTransform="matrix(-0.6995 -0.7146 -0.7146 0.6995 2611.7061 160.606)">
	<stop  offset="0" style="stop-color:#FFFFFF"/>
	<stop  offset="0.4845" style="stop-color:#FDFEFE"/>
	<stop  offset="0.6591" style="stop-color:#F6F9FA"/>
	<stop  offset="0.7835" style="stop-color:#EBF1F3"/>
	<stop  offset="0.884" style="stop-color:#DAE5EA"/>
	<stop  offset="0.9692" style="stop-color:#C4D6DE"/>
	<stop  offset="1" style="stop-color:#BACFD8"/>
</linearGradient>
<path class="st7" d="M628.36,372.19c-2.38,1.96-2.46,5.13-0.19,7.09l60.73,52.2c2.27,1.95,6.05,1.95,8.43-0.01l23.47-19.33
	c2.38-1.96,2.46-5.13,0.19-7.09l-60.73-52.2c-2.27-1.95-6.05-1.95-8.42,0.01L628.36,372.19z"/>
<linearGradient id="SVGID_3_" gradientUnits="userSpaceOnUse" x1="1133.7786" y1="1690.3623" x2="1292.657" y2="1690.3623" gradientTransform="matrix(-0.6995 -0.7146 -0.7146 0.6995 2611.7061 160.606)">
	<stop  offset="0" style="stop-color:#076DA2"/>
	<stop  offset="0.4097" style="stop-color:#096B9F"/>
	<stop  offset="0.5831" style="stop-color:#106698"/>
	<stop  offset="0.7119" style="stop-color:#165E8C"/>
	<stop  offset="0.8186" style="stop-color:#1A527C"/>
	<stop  offset="0.9106" style="stop-color:#1B4368"/>
	<stop  offset="0.9929" style="stop-color:#193152"/>
	<stop  offset="1" style="stop-color:#192F50"/>
</linearGradient>
<path class="st8" d="M511.07,601.12l193.98-161.2c3.63-2.99,3.61-7.97-0.05-11.12l-97.81-84.07c-3.66-3.15-9.58-3.27-13.21-0.28
	l-112.59,92.63v164.04H511.07z"/>
<path class="st9" d="M648.2,362.17c-3.53,2.91-3.55,7.71-0.04,10.73c3.51,3.02,9.22,3.1,12.75,0.2c3.53-2.91,3.55-7.71,0.04-10.73
	C657.43,359.35,651.73,359.26,648.2,362.17z"/>
<linearGradient id="SVGID_4_" gradientUnits="userSpaceOnUse" x1="1133.6614" y1="1690.2941" x2="1268.0128" y2="1690.2941" gradientTransform="matrix(-0.6995 -0.7146 -0.7146 0.6995 2611.7061 160.606)">
	<stop  offset="0" style="stop-color:#145D8D"/>
	<stop  offset="0.3193" style="stop-color:#145B8B"/>
	<stop  offset="0.5395" style="stop-color:#165683"/>
	<stop  offset="0.7298" style="stop-color:#184E77"/>
	<stop  offset="0.9022" style="stop-color:#174266"/>
	<stop  offset="1" style="stop-color:#16395A"/>
</linearGradient>
<path class="st10" d="M511.12,601.12L705.15,440c3.63-2.99,4.14-7.51,1.15-10.08l-80.07-68.83c-3-2.58-8.37-2.24-12.01,0.75
	L481.39,471.56v129.56H511.12z"/>
<path class="st11" d="M596.3,386.29c-4.83,3.98-4.85,10.54-0.05,14.67c4.8,4.12,12.6,4.24,17.43,0.27
	c4.83-3.98,4.85-10.54,0.05-14.66C608.93,382.43,601.13,382.31,596.3,386.29z"/>
<path class="st12" d="M683.43,190.39l5.06,0.4l0.87-13.24c0,0-2.21-3.32-5.04-1.03L683.43,190.39z"/>
<path class="st12" d="M800.62,177.6c0,0,8.3,2.23,10.56,8.05l6.59-8.48c0,0-0.09-7.25-9.03-6.7L800.62,177.6z"/>
<path class="st13" d="M780.34,73.65c-1.1-2.48-5.1-3.52-8.93-2.32l-102.52,32.06c-3.84,1.2-6.06,4.19-4.97,6.67l10.82,24.49
	c1.1,2.48,5.1,3.52,8.94,2.32L786.2,104.8c3.84-1.2,6.06-4.19,4.97-6.67L780.34,73.65z"/>
<path class="st14" d="M751.03,82.79c-1.1-2.48-4.32-3.76-7.2-2.86l-76.91,24.06c-2.88,0.9-4.33,3.64-3.23,6.12l10.82,24.48
	c1.1,2.48,4.32,3.76,7.2,2.86l76.91-24.06c2.88-0.9,4.33-3.64,3.23-6.12L751.03,82.79z"/>
<linearGradient id="SVGID_5_" gradientUnits="userSpaceOnUse" x1="1696.366" y1="942.3153" x2="1850.1034" y2="942.3153" gradientTransform="matrix(0.9372 -0.3484 -0.3484 -0.9372 -631.2618 1544.3229)">
	<stop  offset="0" style="stop-color:#FFFFFF"/>
	<stop  offset="0.4818" style="stop-color:#FDFEFE"/>
	<stop  offset="0.6553" style="stop-color:#F6F9FA"/>
	<stop  offset="0.779" style="stop-color:#EBF1F3"/>
	<stop  offset="0.879" style="stop-color:#DAE5EA"/>
	<stop  offset="0.9637" style="stop-color:#C4D5DE"/>
	<stop  offset="1" style="stop-color:#B8CDD7"/>
</linearGradient>
<path class="st15" d="M762.91,0H640.96l-13.27,58.76l24.36,53.71c1.67,3.79,6.79,5.69,11.43,4.24l123.87-38.74
	c4.64-1.45,7.04-5.7,5.37-9.49L762.91,0z"/>
<path class="st13" d="M753.69,101.04c-1.63-3.68-6.55-5.54-10.99-4.15c-4.44,1.39-6.73,5.5-5.1,9.19c1.63,3.68,6.55,5.54,10.99,4.15
	C753.03,108.84,755.31,104.73,753.69,101.04z"/>
<linearGradient id="SVGID_6_" gradientUnits="userSpaceOnUse" x1="1691.0702" y1="950.0564" x2="1823.3767" y2="950.0564" gradientTransform="matrix(0.9372 -0.3484 -0.3484 -0.9372 -631.2618 1544.3229)">
	<stop  offset="0" style="stop-color:#FFFFFF"/>
	<stop  offset="0.4818" style="stop-color:#FDFEFE"/>
	<stop  offset="0.6553" style="stop-color:#F6F9FA"/>
	<stop  offset="0.779" style="stop-color:#EBF1F3"/>
	<stop  offset="0.879" style="stop-color:#DAE5EA"/>
	<stop  offset="0.9637" style="stop-color:#C4D5DE"/>
	<stop  offset="1" style="stop-color:#B8CDD7"/>
</linearGradient>
<path class="st16" d="M732.93,0H600.37l51.55,112.51c1.67,3.79,6.11,5.9,9.91,4.71L763.24,85.5c3.8-1.19,5.52-5.22,3.85-9.01
	L732.93,0z"/>
<path class="st17" d="M753.8,66.37c-1.78-4.03-7.17-6.06-12.03-4.54s-7.36,6.02-5.58,10.05c1.78,4.03,7.17,6.06,12.03,4.54
	C753.08,74.9,755.58,70.4,753.8,66.37z"/>
<path class="st12" d="M856.84,199.9c0,0,9,2.42,11.45,8.73l7.15-9.2c0,0-0.09-7.86-9.79-7.27L856.84,199.9z"/>
<path class="st12" d="M887.2,245.18c0,0,8.11,4.09,8.78,10.7l9.46-7.58c0,0,2.04-7.67-7.56-8.96L887.2,245.18z"/>
<path class="st12" d="M898.21,288c0,0,6.88,3.71,7.27,9.44l8.41-6.35c0,0,2-6.59-6.26-7.91L898.21,288z"/>
<path class="st12" d="M774.63,145.45l2.86,3.54l12.68-7.88c0,0,1.63-3.54-2.27-3.92L774.63,145.45z"/>
<path class="st12" d="M913.24,216.09l-2.57,3.69l13.9,6.26c0,0,4.5-0.28,3.23-3.41L913.24,216.09z"/>
<linearGradient id="SVGID_7_" gradientUnits="userSpaceOnUse" x1="822.0455" y1="-419.5859" x2="789.6425" y2="-378.5168" gradientTransform="matrix(-1.2638 0.1601 -0.5518 -1.0679 1793.9928 -239.707)">
	<stop  offset="0" style="stop-color:#FFFFFF"/>
	<stop  offset="0.2797" style="stop-color:#FCFDFD"/>
	<stop  offset="0.5038" style="stop-color:#F2F6F8"/>
	<stop  offset="0.7086" style="stop-color:#E1EAEE"/>
	<stop  offset="0.9009" style="stop-color:#C9DAE1"/>
	<stop  offset="1" style="stop-color:#BACFD8"/>
</linearGradient>
<path class="st18" d="M988.8,292.8c-3.84-1.39-8.16-0.14-9.65,2.79l-39.84,78.11c-1.49,2.92,0.41,6.42,4.25,7.81l37.89,13.68
	c3.84,1.39,8.16,0.14,9.65-2.79l39.84-78.11c1.49-2.92-0.41-6.42-4.25-7.81L988.8,292.8z"/>
<linearGradient id="SVGID_8_" gradientUnits="userSpaceOnUse" x1="928.3724" y1="1090.2826" x2="1005.3223" y2="1090.2826" gradientTransform="matrix(0.3943 -0.919 -1.3214 -0.567 2042.3274 1853.7625)">
	<stop  offset="0" style="stop-color:#FFFFFF"/>
	<stop  offset="0.3403" style="stop-color:#FCFDFE"/>
	<stop  offset="0.5488" style="stop-color:#F4F7F9"/>
	<stop  offset="0.7216" style="stop-color:#E6EDF1"/>
	<stop  offset="0.8742" style="stop-color:#D1DFE5"/>
	<stop  offset="1" style="stop-color:#BACFD8"/>
</linearGradient>
<path class="st19" d="M977.37,315.11c-3.84-1.39-7.86-0.73-8.98,1.46l-29.89,58.6c-1.12,2.19,1.09,5.1,4.93,6.48l37.89,13.68
	c3.84,1.39,7.86,0.73,8.98-1.46l29.89-58.6c1.12-2.19-1.09-5.1-4.93-6.48L977.37,315.11z"/>
<path class="st9" d="M991.45,324.48c-3.96-1.43-8.58,0.15-10.3,3.54c-1.73,3.39,0.09,7.29,4.05,8.72c3.96,1.43,8.58-0.15,10.3-3.54
	C997.23,329.82,995.42,325.91,991.45,324.48z"/>
<linearGradient id="SVGID_9_" gradientUnits="userSpaceOnUse" x1="1186.1534" y1="-481.5727" x2="1035.7706" y2="-260.7474" gradientTransform="matrix(0.1315 0.9913 -0.9913 0.1315 595.62 -678.0244)">
	<stop  offset="0" style="stop-color:#FFFFFF"/>
	<stop  offset="0.3403" style="stop-color:#FDFDFD"/>
	<stop  offset="0.5024" style="stop-color:#F6F8F9"/>
	<stop  offset="0.6221" style="stop-color:#F1F4F5"/>
	<stop  offset="0.7594" style="stop-color:#E3EAED"/>
	<stop  offset="0.9047" style="stop-color:#CDDBE1"/>
	<stop  offset="1" style="stop-color:#BACFD8"/>
</linearGradient>
<polygon class="st20" points="1202.95,335.67 1048.97,312.81 1031.62,312.95 990.3,393.87 1001.78,405.94 1202.95,487.45 "/>
<path class="st11" d="M570.62,407.46c-4.83,3.98-4.85,10.54-0.05,14.67c4.8,4.12,12.6,4.24,17.43,0.27
	c4.83-3.98,4.85-10.54,0.05-14.66C583.25,403.6,575.45,403.48,570.62,407.46z"/>
<path class="st13" d="M481.39,188.94v111.49c11.49-0.98,43.43-3.92,50.79-6.88l5.72-92.05C537.89,201.5,503.72,191.78,481.39,188.94
	z"/>
<path class="st21" d="M534.65,215.06c0.02-0.56,0.08-1.18,0.08-1.75l-18.26-0.32l1.17-16.78c-0.32-0.08-3.04-0.79-3.19-0.77
	l-1.22,17.5l-28-0.52l1.33-22.71c-0.94-0.05-2.73-0.47-3.01-0.45l-1.56,23.1l-0.6-0.01v1.7l0.48,0.01l-0.48,6.93v46.54l0.47-6.67
	l28,0.52l-1.62,23.17l-26.85-0.5v1.7l26.73,0.5l-0.81,11.63c0.25-0.02,2.67-0.32,3.27-0.39l0.78-11.18l20.01,0.41
	c0.04-0.58,0.03-1.23,0.08-1.73l-19.97-0.38l1.62-23.17l19.41,0.52c0-0.57,0.07-1.06,0.04-1.81l-19.34-0.41l1.52-21.84l18.85,0.44
	c0.04-0.92,0.06-1.29,0.08-1.77l-18.81-0.37l1.5-21.5L534.65,215.06z M509.97,259.66l-28-0.52l1.52-21.84l28,0.52L509.97,259.66z
	 M511.61,236.11l-28-0.52l1.5-21.5l28,0.52L511.61,236.11z"/>
<path class="st22" d="M580.75,288.62l-2.18-78.89c-0.08-2.76,2.55-5.07,5.83-5.14l11.05-0.22c3.28-0.06,6.03,2.14,6.11,4.9
	l2.18,78.89c0.08,2.76-2.55,5.07-5.83,5.14l-11.05,0.22C583.57,293.59,580.83,291.38,580.75,288.62z"/>
<ellipse transform="matrix(0.0225 -0.9997 0.9997 0.0225 330.6779 834.9278)" class="st9" cx="592.28" cy="248.37" rx="11.6" ry="12.67"/>
<path class="st23" d="M604.95,248.21c0-0.03-0.01-0.06-0.01-0.09l-25.32,0.5c0,0.03,0,0.06,0,0.09c0.18,6.41,5.99,11.49,12.99,11.35
	C599.6,259.92,605.13,254.62,604.95,248.21z"/>
<path class="st24" d="M592.21,268.55c-0.65,0.01-1.18-0.46-1.2-1.05c-0.02-0.59,0.49-1.08,1.14-1.09c0.65-0.01,1.18,0.46,1.2,1.05
	S592.85,268.54,592.21,268.55z"/>
<path class="st24" d="M592.42,276.24c-0.65,0.01-1.18-0.46-1.2-1.05c-0.02-0.59,0.49-1.08,1.14-1.09c0.65-0.01,1.18,0.46,1.2,1.05
	C593.58,275.74,593.07,276.23,592.42,276.24z"/>
<path class="st24" d="M592.63,283.93c-0.65,0.01-1.18-0.46-1.2-1.05c-0.02-0.59,0.49-1.08,1.14-1.09c0.65-0.01,1.18,0.46,1.2,1.05
	C593.79,283.43,593.28,283.92,592.63,283.93z"/>
<path class="st25" d="M592.04,249.4c-0.67,0-1.22-0.46-1.21-1.03c0-0.57,0.55-1.02,1.22-1.02c0.67,0,1.22,0.46,1.21,1.03
	C593.26,248.94,592.71,249.4,592.04,249.4z"/>
<polygon class="st25" points="591.93,247.38 596.41,245.17 593.08,248.67 "/>
<polygon class="st25" points="592.78,248.8 592.02,255.53 591.26,248.67 "/>
<path class="st26" d="M528.53,293.5l4.1-89.5c0.28-6.02,6.35-10.75,13.51-10.52l30.44,0.99c5.25,0.17,9.39,3.93,9.18,8.35
	l-4.23,92.41c-0.28,6.02-6.35,10.75-13.51,10.52l-26.99-0.87C533.89,304.63,528.26,299.52,528.53,293.5z"/>
<linearGradient id="SVGID_10_" gradientUnits="userSpaceOnUse" x1="829.1583" y1="-265.9991" x2="859.3779" y2="-224.7533" gradientTransform="matrix(0.0436 0.999 -0.999 0.0436 671.5032 -681.5164)">
	<stop  offset="0" style="stop-color:#70C0D9"/>
	<stop  offset="0.4918" style="stop-color:#43B0D4"/>
	<stop  offset="1" style="stop-color:#00A4D1"/>
</linearGradient>
<path class="st27" d="M903.91,121.14c-3.47,1.95-4.58,5.68-2.48,8.33l56.15,70.66c2.1,2.65,6.62,3.21,10.1,1.25l34.28-19.28
	c3.47-1.95,4.59-5.68,2.48-8.33l-56.15-70.66c-2.1-2.65-6.62-3.21-10.1-1.25L903.91,121.14z"/>
<linearGradient id="SVGID_11_" gradientUnits="userSpaceOnUse" x1="694.907" y1="-546.6467" x2="859.7285" y2="-273.1656" gradientTransform="matrix(0.0436 0.999 -0.999 0.0436 671.5032 -681.5164)">
	<stop  offset="0" style="stop-color:#68BDD2"/>
	<stop  offset="0.3218" style="stop-color:#46B1D1"/>
	<stop  offset="0.721" style="stop-color:#10A8D1"/>
	<stop  offset="1" style="stop-color:#00A4D1"/>
</linearGradient>
<polygon class="st28" points="1097.5,0 956.65,89.59 947.33,101.9 1005.47,175.14 1023.75,173.62 1202.95,111.31 1202.95,0 "/>
<path class="st29" d="M939.36,121.45c-4.47-2.02-10.08-0.57-12.52,3.25c-2.44,3.82-0.8,8.56,3.67,10.58
	c4.47,2.02,10.08,0.57,12.52-3.25C945.48,128.21,943.83,123.47,939.36,121.45z"/>
<path class="st30" d="M741.28,510.19c3.47,1.59,30.54,12.28,38.2,16.14c7.66,3.86,57.8,44.01,73.56,47.42
	c15.76,3.4,23.99,20.19,23.99,20.19c1,2.41,1.99,4.8,2.98,7.18h96.47c-12.59-19.31-20.86-32.02-21.18-32.55
	c-2.66-4.45-1.78-10.85-1.78-10.85c3.71-23.77-14.8-73.16-17.39-81.15c-2.59-7.99-6.47-60.59-10.98-72.35
	c-4.51-11.75-22.73-11.28-21.09,4.66c1.64,15.95,0.87,56.52,0.87,56.52s-12.38-44.24-15.14-51.84c-2.77-7.6-6.86-28.15-21.32-25.32
	c-14.46,2.83,1.37,41.07,4.18,57.61c2.81,16.54-3.35,23-3.35,23c-10.9-16.09-36.13-82.52-52.41-77.61
	c-20.18,6.08,15.01,58.61,20.17,72.36c5.16,13.75-0.37,17.73-0.37,17.73c-11.88-10.6-46.36-69.71-59.7-60.26
	c-13.33,9.45,13.67,42.88,24.28,56.19c10.62,13.31,40.29,55.66-9.24,29.99C742.51,481.58,737.81,508.6,741.28,510.19z"/>
<path class="st12" d="M753.92,515.41l1.99-3.1l-11.66-4.81c0,0-3.7,0.34-2.54,2.88L753.92,515.41z"/>
<path class="st12" d="M780.06,436.55c0,0,4.68-4.58,10.64-4.15l-5.52-6.93c0,0-6.56-2.27-8.94,3.6L780.06,436.55z"/>
<path class="st12" d="M818.21,407.85c0,0,5.08-4.97,11.55-4.5l-5.99-7.52c0,0-7.12-2.47-9.7,3.91L818.21,407.85z"/>
<path class="st12" d="M868.77,403.03c0,0,6.29-3.86,12.46-2.16l-3.79-8.47c0,0-6.26-3.77-10.5,1.94L868.77,403.03z"/>
<path class="st12" d="M910.89,409.77c0,0,5.55-3.2,10.84-1.6l-3.02-7.41c0,0-5.3-3.39-9.14,1.45L910.89,409.77z"/>
<linearGradient id="SVGID_12_" gradientUnits="userSpaceOnUse" x1="-0.5" y1="300.4282" x2="481.8861" y2="300.4282">
	<stop  offset="0" style="stop-color:#0AA9D4"/>
	<stop  offset="1" style="stop-color:#3FC2CD"/>
</linearGradient>
<rect y="0.87" class="st31" width="481.39" height="599.12"/>
</svg>
